<?xml version="1.0" encoding="utf-8"?>
<!-- Generator: Adobe Illustrator 26.2.1, SVG Export Plug-In . SVG Version: 6.00 Build 0)  -->
<svg version="1.1" id="Layer_1" xmlns="http://www.w3.org/2000/svg" xmlns:xlink="http://www.w3.org/1999/xlink" x="0px" y="0px"
	 viewBox="0 0 566.84 580.58" style="enable-background:new 0 0 566.84 580.58;" xml:space="preserve">
<style type="text/css">
	.st0{fill:#FFFFFF;}
</style>
<path class="st0" d="M528.83,557.92c0.19-0.17,3.17-2.02,3.36-2.21c2.72-2.71,5.2-3.46,5.15-7.67c-0.05-4.19-0.04-8.56-0.46-12.75
	c1.07-1.95,1.97-3.99,2.66-6.15c2.86-8.89,1.08-18.22-3.36-26.25c-4.46-8.06-11.2-15.38-19.05-21.09c5,1.1,10.18,1.56,15.25,0.84
	c14.84-2.12,23.68-15.14,25.55-29.28c0.48-3.6,0.58-7.26,0.29-10.88c-0.21-2.61-0.69-6.18-3.5-7.3c-1.84-0.73-3.61,0.11-4.81,1.54
	c-0.81,0.96-1.5,2.13-2.1,3.39c-0.5-1.36-1.34-2.5-2.75-3.15c-3.25-1.48-6.87,0.58-9,3.01c-0.4,0.46-0.77,0.94-1.13,1.45
	c-0.11-0.31-0.34-0.58-0.61-0.75c-3.9-2.44-7.92-2.04-12.25-1.12c-5.29,1.12-10.25,1.76-15.36-0.44
	c-10.39-4.47-14.51-15.56-20.56-24.29c-2.83-4.09-6.42-7.66-9.08-11.83c-3.08-4.83-5.23-9.82-6.61-15.4
	c-2.62-10.62-2.3-21.69-1.37-32.51c1.06-12.31,2.94-24.55,2.9-36.93v-33.65c0-10.77,0.38-21.6-0.01-32.37
	c-0.33-9.14-1.72-18.95-4.29-27.75c-1.22-4.19-3.1-7.74-5.56-11.33c-2.35-3.42-3.9-5.96-7.32-8.39c-1.91-1.36-3.92-2.06-5.98-3.13
	c-2.15-1.12-3.93-2.76-6.17-3.71c-3.98-1.7-8.99-2.62-13.31-2.57c-4.93,0.06-9.9,0.52-14.79-0.43c-5.58-1.09-10.35-4.33-15.33-6.91
	c-6.66-3.46-13.55-6.43-19.26-11.25c-0.18-0.35-0.35-0.7-0.54-1.04c-3.25-5.86-8.36-10.12-12.59-15.2c-1.9-2.28-3.08-5.43-4.56-8
	c-1.36-2.37-1.4-5.11-1.8-7.8c-0.09-0.63-0.18-1.25-0.26-1.85c0.05-2.24,0.3-4.48,0.71-6.73c0.83-2.24,1.84-4.4,2.64-6.65
	c0.35-0.97,0.57-1.94,0.75-2.91c0.96-2.2,1.79-4.47,2.58-6.7c0.2-0.57,0.04-1.02-0.3-1.32c0.54-1.28,1.09-2.54,1.63-3.76
	c0.06-0.13,0.09-0.25,0.11-0.37c0.12-0.02,0.25-0.05,0.37-0.11c1.14-0.5,2.06-2.02,2.79-2.95c1.72-2.19,3.28-4.52,4.61-6.98
	c2.39-4.42,4.88-10.46,2.44-15.37c-1.31-2.65-3.34-4.1-5.49-4.31c0.63-0.95,1.18-1.95,1.69-3.01c1.92-3.99,3.36-8.06,3.59-12.49
	c0.12-2.3,0.44-4.6,0.47-6.91c0.04-2.61-0.63-5.23-0.99-7.81c-0.7-5.03-1.25-10.15-3.18-14.89c-1.97-4.83-5.47-9.6-9.59-12.82
	c-1.9-1.48-4.16-1.38-6.16-2.55c-1.55-0.9-2.39-2.64-3.67-3.84c-0.93-0.87-1.99-1.64-3.09-2.28c-4.9-2.87-10.76-3.68-16.26-4.66
	c-5.87-1.05-11.45-2.21-17.44-0.98c-6.5,1.33-13.06,2.52-19.27,4.98c-5.49,2.18-10.42,5.66-14.71,9.69
	c-8.53,8.02-15.12,18.66-16.56,30.41c-0.75,6.14-3.07,12.48-2.07,18.71c0.82,5.11,3.43,10.29,5.05,15.21
	c0.59,1.8,1.1,3.89,1.97,5.66c-0.26,0.3-0.4,0.72-0.29,1.22c0.28,1.22,0.8,2.23,1.27,3.26c-0.2,0.27-0.38,0.55-0.53,0.87
	c-1.34,2.77-0.19,6.77,0.71,9.54c-0.02,0.78-0.07,1.57-0.25,2.34c-0.56,2.31-1.45,4.41-1.75,6.8c-0.38,3.06-0.38,6.13-0.78,9.2
	c-0.48,3.66-1.08,9.02,0.21,12.57c0.66,1.8,2.24,3,3.16,4.64c1.15,2.04,1.94,4.04,3.57,5.8c5.5,5.92,14.05,6.26,20.1,0.74
	c0.32-0.29,0.64-0.61,0.95-0.94c-0.42,2.6-1,5.2-1.62,7.72c-0.93,3.77-2.27,7.09-4.61,10.2c-1.43,1.89-2.84,3.97-4.53,5.63
	c-3.2,3.14-7.39,4.59-11.57,5.94c-9.45,3.04-18.34,7.47-27.71,10.71c-4.35,1.51-8.76,3.43-13.24,4.46c-4.41,1-8.94,0.95-13.18,2.66
	c-14.17,5.74-17.96,20.18-19.14,33.98c-0.64,7.4-2.1,14.55-3.42,21.85c-1.37,7.57-2.05,15.24-3.43,22.81
	c-1.55,8.5-4.29,16.61-6.27,24.99c-2.45,10.35-3.99,20.88-5.51,31.39c-1.54,10.64-2.6,21.72-5.5,32.1
	c-2.67,9.58-9.19,17.5-14.84,25.47c-2.75,3.88-5.52,7.86-7.41,12.25c-1.89,4.41-2.89,9.07-4.19,13.67c-1.42,5.03-3.49,9.85-5,14.86
	c-1.19,3.95-2.28,7.93-3.59,11.84c-2.73,8.12-6.52,16.23-13.81,21.09c-0.82-1.22-1.79-2.36-3.14-3.34
	c-3.15-2.29-6.94-2.71-10.72-2.34c-1.71,0.17-3.3,0.3-4.98,0.18c-1.97-0.8-4.28-1.21-6.49-1.07c-0.1,0-0.2,0-0.29,0.01
	c-0.09,0.01-0.18,0.03-0.28,0.04c-0.02,0-0.03,0-0.05,0.01c-3.5,0.37-6.54,1.73-8.49,4.64c-1.47,2.19-5.81,5.26-4.29,8.41
	c0.25,0.52,0.62,0.93,1.07,1.26c-0.16,0.15-0.37,0.34-0.65,0.61c-1.12,1.08-2.16,2.11-3.03,3.41c-1.81,2.72-2.73,5.75-3.15,8.97
	c-0.35,2.69-0.46,5.54,0.2,8.19c0.63,2.54,2.31,4.67,3.77,6.8c1.65,2.41,5.28,8.21,8.9,5.96c0.18-0.11,0.35-0.24,0.52-0.38
	c2.29,3.42,5.75,5.97,10.25,5.38c1.62-0.21,2.91-1.1,3.95-2.31c1.43,2.14,3.77,3.46,5.78,2.09c0.99-0.12,1.85-0.55,2.38-1.3
	c0.09,0.09,0.18,0.18,0.28,0.26c0.72,0.6,1.5,0.92,2.31,1.06c-3.58,2.41-6.95,5.14-9.9,8.27c-4.12,4.38-7.59,9.34-8.82,15.28
	c-0.97,4.67-1.99,9.91-1.62,14.78c-9.96,1.26-20.05,0.57-30.05,0.13c-9.78-0.43-19.49,0.08-29.26,0.44
	c-14.93,0.54-29.87,1.01-44.8,1.47v2.82c2.74-0.08,5.48-0.17,8.23-0.25c10.82-0.34,21.63-0.68,32.45-1.07
	c9.65-0.34,19.35-1.07,29-0.76c11.65,0.37,23.39,1.53,35-0.03c0.13-0.02,0.24-0.05,0.35-0.09c0.88,0.31,2.19-0.43,2-1.7
	c-0.72-4.8,0.46-10.32,1.43-15c1.21-5.8,4.71-10.6,8.82-14.79c4.62-4.7,10.16-8.39,15.97-11.47c2.6-1.38,5.44-2.38,7.73-4.19
	c2.83-2.24,6.3-3.4,9.58-4.94c7.54-3.54,15.14-6.7,22.99-9.48c3.34-1.18,6.71-2.29,10.13-3.22c1.61-0.44,3.24-0.84,4.87-1.2
	c2.31-0.5,5.14-0.52,7.35-1.24c0.49-0.16,0.97-0.36,1.45-0.58c3.42,0.28,6.8,0.79,10.13,1.72c8.47,2.36,15.75,7.95,23.36,12.17
	c4.09,2.26,8.31,3.96,12.64,5.39c-8.62,2.13-17.13,4.62-25.29,7.95c-7.82,3.19-15.13,7.5-21.97,12.44c-2.98,2.15-5.87,4.42-8.7,6.76
	c-2.21,1.82-6.39,4.28-7.33,7.21c-1.93,5.99,10.2,4.41,12.8,3.44c3.95-1.46,7.22-3.85,11.37-4.62c4.16-0.77,7.91-3.05,11.9-4.53
	c17.35-6.46,36.19-8.57,52.87-16.88c2-1,3.95-2.06,5.88-3.18c1.9,0.72,3.53,1.79,5.39,2.62c1.81,0.8,3.62,0.84,5.46,1.58
	c2.14,0.86,4.21,2.04,6.28,3.06c4.53,2.22,9.06,4.46,13.58,6.69c8.56,4.22,17.14,8.43,25.8,12.45c8.02,3.72,16.01,7.06,24.59,9.31
	c8.59,2.25,17.41,3.94,26.17,5.42c18.9,3.2,38.3,3.6,57.43,3.8c29.86,0.3,57.91-0.54,87.78-0.84L528.83,557.92z M525.28,492.99
	c5.59,5.91,10.44,12.97,12.21,21.02c1.26,5.71,0.55,11.26-1.51,16.37c-0.73-2.64-1.82-5.16-3.05-7.67c-1.9-3.88-4.37-6.2-7.56-8.99
	c-1.56-1.36-2.76-3.07-4.38-4.36c-1.48-1.18-3.16-2-4.85-2.82c-0.07-0.33-0.27-0.63-0.64-0.85c-14.03-8.39-30.79-7.33-46.56-7.58
	c-17.57-0.28-35.14,0-52.7,0.18c-17.59,0.17-35.19,0.24-52.77-0.46c-8.32-0.33-16.64-0.73-24.95-1.1
	c-5.31-0.24-10.7-0.62-16.03-1.28c3.48-0.36,6.72-0.85,10.3-1.72c0.11-0.03,0.22-0.05,0.33-0.07c7.38-1.09,14.73-2.39,22.06-3.71
	c6.16-0.87,12.31-1.8,18.35-3.33c0.4-0.1,0.81-0.22,1.21-0.33c5.39-1.04,10.8-1.99,16.22-2.49c9.06-0.82,18.17-1.11,27.21-2.17
	c3.95-0.46,7.6-1.17,11.41-2.32c4.05-1.22,8.63-1.07,12.82-1.95c7.94-1.66,15.79-3.6,23.86-4.57c7.68-0.93,15.38-0.99,22.82,0.2
	c1.61,1.42,3.82,2.02,5.89,2.42c1.54,0.29,3.07,0.52,4.58,0.82c1.31,0.57,2.68,1.05,4.05,1.47c0.81,0.25,1.63,0.48,2.46,0.66
	c2.06,1.03,4.08,2.2,6.05,3.52C516.88,485.1,521.31,488.8,525.28,492.99z M238.03,465.69c2.39-4.24,2.73-10.31,3.67-15.02
	c1.09-5.5,2.14-11.2,4.46-16.34c4.46-9.86,11.54-18.23,14.99-28.56c3.38-10.1,4.24-20.36,2.89-30.9
	c-1.31-10.21-4.26-19.91-7.67-29.59c-6.69-18.99-13.45-40.75-9.44-61.01c0.05-0.27,0.03-0.51-0.04-0.72
	c0.16-0.14,0.29-0.32,0.38-0.55c3.76-9.28,10.12-17.21,13.6-26.59c2.31-6.2,3.35-12.71,4.12-19.27c2.98,5.11,6.76,9.35,11.93,12.76
	c7.9,5.2,17.1,8.13,26.4,9.53c18.81,2.83,39.15,0.34,56.31-8.03c4.23-2.06,8.4-4.44,11.86-7.66c3.33-3.1,5.95-6.85,9.13-10.08
	c3.02-3.07,4.89-6.55,6.96-10.28c0.39-0.7,0.77-1.41,1.15-2.11c1.7,10.34,3.28,21.03,7.07,30.74c3.96,10.15,10.71,19.23,18.04,27.2
	c1.68,1.83,4.08,5.5,6.81,5.89c-0.02,0.04-0.04,0.08-0.05,0.12c-0.74,1.78-1.32,3.67-1.9,5.5c-1.21,3.79-1.51,7.7-1.84,11.65
	c-0.71,8.33-1.21,16.39-1.04,24.76c0.07,3.32-0.01,6.66-0.07,10c-0.72,2.62-1.5,5.21-2.29,7.77c-2.38,7.69-4.9,15.22-7.81,22.73
	c-3.04,7.83-3.78,16.28-5.87,24.38c-1.72,6.7-2.67,14.83-0.75,21.56c1.82,6.38,6.11,11.78,9.55,17.34
	c3.83,6.19,7.79,12.93,13.14,17.97c0.95,0.89,1.97,1.62,3.06,2.24c-1.39,0.25-2.81,0.71-4.27,1.42
	c-6.72,3.29-12.06,9.86-17.13,15.18c-2.7,2.83-5.58,5.59-8.87,7.75c-1.4,0.92-2.41,0.98-3.85,1.43c-1.88,0.59-3.66,1.91-5.45,2.73
	c-3.5,1.6-7.1,2.84-10.77,3.85c-5.41,1.01-10.81,2.09-16.21,3.04c-1.96,0.35-3.93,0.68-5.89,1.01c-5.54,0.76-11.07,1.51-16.5,2.6
	c-0.33,0.07-0.67,0.14-1,0.22c-2.06,0.32-4.13,0.64-6.2,0.96c-6.23,0.96-12.45,1.51-18.7,1.92c-6.65-1.67-13.02-4.28-19.21-7.22
	c-3.54-1.68-7.08-3.11-9.61-6.23c-2.03-2.51-3.3-5.56-5.41-8c-8.46-9.8-25.59-8.41-36.91-6.13c-0.29,0.06-0.59,0.13-0.88,0.19
	C237.97,465.79,238,465.74,238.03,465.69z M237.41,457.58c-0.57,2.56-0.9,7.21-3.69,8.23c-4.4,1.6-9.83-3.33-13.21-5.51
	c-4.67-3.01-9.29-6.09-14.09-8.87c-4.26-2.47-8.58-4.57-13.05-6.09c3.97-4.23,7.69-8.63,11.23-13.29
	c5.17-6.81,10.26-13.81,13.63-21.72c3.28-7.7,6.16-15.93,8.13-24.06c2.08-8.6,4.35-17.22,6.02-25.91
	c1.73-8.97,2.82-18.02,4.27-27.04c0.59-3.68,0.26-7.12,0.47-10.81c0.14-2.41,0.88-4.8,1.49-7.13c1.23-4.71,2.81-9.38,3.81-14.14
	c0.26-1.24,0.42-2.49,0.56-3.75c0.14,13.96,3.97,28.11,8.17,41.12c2.98,9.22,6.53,18.19,8.58,27.7c2.63,12.23,3.02,24.18-0.53,36.26
	c-3.33,11.32-11.02,20.24-15.75,30.92c-2.21,4.98-3.28,10.46-4.34,15.78C238.55,452.05,238.02,454.83,237.41,457.58z M482.02,461.88
	c-0.41-0.11-0.81-0.2-1.22-0.29c-1.2-0.24-2.39-0.43-3.58-0.65c-1.09-0.38-2.17-0.8-3.25-1.23c-3.85-1.53-7.67-3.28-11.76-4.06
	c-4.24-0.81-8.65,0.03-12.98,0.38c-0.65-0.2-1.31-0.41-1.98-0.62c-3.54-1.1-7.06-2.31-10.64-3.28c-3.39-0.92-6.99-1.55-10.1-3.25
	c-6.45-3.52-10.79-11.89-14.56-17.93c-3.59-5.75-8.31-11.56-10.19-18.16c-2.23-7.83-0.03-16.31,1.81-23.95
	c0.95-3.94,1.4-7.98,2.23-11.95c0.88-4.17,2.37-8.07,3.97-12.01c2.34-5.76,4.2-11.73,5.97-17.7c0.06,1.85,0.16,3.7,0.35,5.55
	c0.85,8.3,2.69,16.59,3.95,24.84c2.25,14.78,3.37,31.02,11.25,44.13c3.52,5.85,8.59,10.69,13.63,15.23
	c5.11,4.6,10.58,8.97,16.6,12.33c5.85,3.27,12.23,4.95,17.66,9.01c1.51,1.12,3.07,2.09,4.27,3.41
	C482.94,461.77,482.47,461.85,482.02,461.88z M485.86,468.73c0.11,0.29,0.17,0.6,0.26,0.9c-13.69-1.43-27.57,1.15-40.9,4.22
	c-4.49,1.03-8.84,1.41-13.37,2.02c-2.11,0.28-4.01,1.14-6.05,1.7c-2.92,0.8-5.99,1.07-9,1.39c-9.62,1.05-19.4,1.03-28.99,2.31
	c1.1-0.6,2.2-1.17,3.3-1.49c1.49-0.43,2.43-0.43,3.85-1.27c7.47-4.4,12.63-11.67,18.96-17.42c3.18-2.89,6.34-6,10.63-7.11
	c5.02-1.31,8.51,0.96,12.76,3.19c3.55,1.87,7.29,1.98,11.09,1.69c3.3,0.94,6.64,1.58,10.08,1.35c3.35-0.22,5.64,0.04,8.82,1.16
	c2.68,0.94,5.57,1.61,8.35,2.21c0.43,0.09,0.87,0.17,1.3,0.24c1.19,0.41,2.39,0.77,3.61,1.04c0.58,0.13,1.13,0.3,1.72,0.26
	c0.09,0,0.21-0.04,0.35-0.09C484.37,465.8,485.14,466.88,485.86,468.73z M419.05,308.09c0.55-4.87,0.62-10.01,1.83-14.77
	c0.49-1.96,1.17-3.91,1.88-5.81c-0.11,2.87-0.31,5.71-0.75,8.5c-0.62,3.94-0.64,7.89-1.32,11.84c-0.67,3.94-1.16,7.84-1.51,11.82
	c-0.15,1.62-0.37,3.25-0.62,4.87C418.45,319.04,418.43,313.55,419.05,308.09z M494.46,467.22c0.04-5.32,9.59-7.27,13.41-8.78
	c4.49-1.77,8.94-3.65,13.26-5.81c-2.03,3.39-3.3,7.32-4.15,11.12c-1.18,5.27-0.64,12.55-8.11,12.28c-0.38-0.01-0.81-0.05-1.27-0.12
	c-0.08-0.03-0.16-0.07-0.24-0.1c-3.34-1.68-6.79-3.06-10.27-4.08C495.51,470.48,494.45,468.96,494.46,467.22z M513.56,477.98
	c0.46-0.21,0.91-0.45,1.35-0.75c4.4-2.94,3.76-8.11,4.79-12.71c1.11-5,3.06-11.27,7.18-14.85c1.12-0.56,2.33-1.17,3.48-1.87
	c0.43,0.03,0.74,0.27,1.02,0.7c-0.54,1.39-1.05,2.79-1.56,4.12c-2.23,5.8-4.22,11.76-5.66,17.81c-0.61,2.59-0.79,6.73,0.3,9.62
	C520.77,479.78,517.12,479.02,513.56,477.98z M535.71,454.37c-0.06-1.46-0.38-4.13-1.21-6.3c0.72-1.55,1.51-3.04,2.38-4.45
	c0.83-1.34,1.91-2.79,3.34-3.55c2.46-1.3,4.92,0.02,5.27,2.74c0.11,0.87,0.18,1.76,0.23,2.64c-0.41,1.21-0.79,2.39-1.17,3.45
	c-3.08,8.55-5.28,17.36-6.69,26.34c-0.17,1.06,0.96,2.4,2.07,1.59c3.66-2.65,5.21-6.55,6.32-10.8c1.55-6,2.32-12.24,2.29-18.43
	c0-0.41,0-0.84,0-1.3c0.19-0.5,0.38-0.99,0.58-1.49c0.54-1.35,1.41-4.93,2.71-5.98c4.38-3.53,3.74,8.92,3.64,10.66
	c-0.85,15.24-9.89,29.63-26.06,30.61c1.96-3.74,2.92-7.88,3.81-12C534.18,463.6,535.89,459.02,535.71,454.37z M545.34,455.43
	c-0.42,4.9-1.19,11.31-3.91,15.71C542.44,465.83,543.73,460.58,545.34,455.43z M532.91,454.9c0.04,2.78-0.79,5.35-1.44,8.02
	c-1.24,5.11-1.91,10.47-4.22,15.22c-0.18-1.33-0.74-2.69-0.78-4.03c-0.12-3.44,1.58-7.39,2.58-10.65c1.1-3.58,2.25-7.38,3.64-11.05
	C532.82,453.24,532.89,454.07,532.91,454.9z M393.7,188.29c4.6,2.28,9.01,5.01,13.68,7.12c9.29,4.2,18.96,1.42,28.54,3.51
	c2.6,0.57,5.07,1.06,7.41,2.42c1.85,1.08,3.45,2.38,5.43,3.26c2.48,1.1,4.71,2.34,6.77,4.13c2.06,1.78,3.28,4.45,4.83,6.67
	c5.37,7.68,6.42,17.46,7.85,26.5c2,12.63,0.93,25.83,0.93,38.57v37.69c0.08,22.4-6.48,44.95-2.07,67.27
	c1.08,5.47,2.85,10.9,5.46,15.84c2.46,4.68,6.35,8.38,9.47,12.61c6.02,8.15,9.87,18.41,18.13,24.63c3.48,2.62,7.55,4.45,11.91,4.91
	c5.47,0.58,10.49-1.94,15.87-1.84c0.55,0.01,4.22,0.58,4.23,0.73c0.1,0.84-2.39,2.16-3.03,2.57c-1.11,0.38-2.19,1.1-3.17,1.95
	c-1.57,0.93-3.16,1.81-4.77,2.65c-5.29,2.74-10.79,5.02-16.35,7.16c-5.53,2.13-16.93,6.51-12.32,13.99
	c-0.64-0.13-1.27-0.24-1.91-0.35c-0.7-0.86-1.17-1.9-1.58-3.01c-0.4-2.13-1.51-4.57-2.03-5.58c-1.74-3.38-6.1-5.84-9.23-7.84
	c-5.39-3.44-11.67-4.98-17.12-8.35c-6.62-4.09-12.61-9.24-18.14-14.7c-5.46-5.38-9.78-11.11-12.53-18.33
	c-2.75-7.24-4-14.93-5.2-22.54c-1.41-8.94-2.69-17.89-4.17-26.81c-0.72-4.31-1.62-8.59-1.89-12.96c-0.27-4.34-0.12-8.69-0.04-13.03
	c1.54-5.72,2.79-11.57,3.32-17.43c0.37-4.17,0.93-8.27,1.64-12.4c0.74-4.29,0.82-8.6,1.49-12.9c0.68-4.36,0.71-8.8,0.76-13.24
	c1-1.8,1.78-3.84,2.51-5.44c1.42-3.1,2.57-6.28,3.4-9.59c0.76-3.02,2.65-9.12-1.05-11.06c-2.84-1.48-4.52,1.76-5.27,3.97
	c-2.3,6.77-2.49,13.96-2.58,21.15c-0.02,0.05-0.04,0.09-0.05,0.14c-0.04,0.14-0.08,0.27-0.12,0.4c-0.07,0.08-0.14,0.16-0.22,0.22
	c-2.89,2.38-5.37-2.27-7.06-4.12c-3.28-3.56-6.29-7.36-9.05-11.35c-3.81-5.52-7.15-11.4-9.13-17.83c-1.69-5.5-2.83-11.17-3.91-16.81
	c-0.9-4.7-1.69-9.44-2.49-14.17c0.36-0.95,0.69-1.93,0.94-2.93c1.82-7.24,3.32-19.76-1.29-27.01
	C391.58,187.23,392.64,187.76,393.7,188.29z M426.08,273.98c0.06-1.06,0.14-2.11,0.25-3.17c0.4-3.77,0.62-7.76,1.97-11.34
	c0.04-0.11,0.74-2.04,1.02-2c1.24,0.16,0.64,3.48,0.55,4.1c-0.4,2.81-1.2,5.67-2.14,8.34C427.25,271.29,426.68,272.64,426.08,273.98
	z M389.72,210.09c-0.89-4.89-1.87-9.76-3.1-14.57c-0.96-3.75-1.99-7.44-3.27-11.04C392.37,187.65,391.34,201.82,389.72,210.09z
	 M373.53,87.57c1.47,0.74,2.5,2.19,2.92,3.75c0.78,2.87-0.29,6.11-1.42,8.75c-1.21,2.82-2.84,5.49-4.62,7.97
	c-0.73,1.02-2.17,3.31-3.13,3.73c-0.41,0.18-0.63,0.47-0.71,0.79c-0.05,0.01-0.1,0.03-0.15,0.05c0-0.03,0-0.07,0.01-0.1
	c0.22-7.44-0.82-14.37,1.8-21.57c0.05-0.14,0.11-0.27,0.17-0.4c0.46-0.62,0.87-1.26,1.28-1.7
	C370.86,87.57,371.81,86.71,373.53,87.57z M273.8,91.25c-0.88-2.73-1.81-5.45-2.74-8.16c-0.84-2.45-2.07-4.95-2.46-7.51
	c-0.58-3.78,0.3-7.68,1.01-11.38c1.25-6.47,1.78-12.72,4.69-18.76c2.96-6.16,7.17-11.74,12.15-16.41
	c4.84-4.54,10.52-8.32,16.94-10.14c6.71-1.9,13.85-3.93,20.87-4.18c6.16-0.22,12.96,1.46,18.95,2.94c3.09,0.76,6.21,1.76,8.8,3.65
	c2.38,1.74,3.6,4.5,6.4,5.7c1.04,0.45,2.18,0.54,3.23,0.95c1.85,0.73,3.26,2.37,4.6,3.8c2.07,2.21,3.86,4.65,5.18,7.38
	c2.4,4.98,2.94,10.6,3.69,16c1.33,9.58,1.37,20.96-5.09,29c-1.14,1.42-2.73,2.5-3.67,4.08c0,0,0,0.01,0,0.01
	c-0.14-0.35-0.46-0.93-0.38-0.42c-0.28-1.83,0.25-6.38,0.22-9.07c-0.08-6.91-2.09-13.15-4.98-19.38c-2.78-6-6.66-12.71-12.63-16.04
	c-6.08-3.39-10.82-0.53-16.43,2.16c-7.83,3.76-16.03,6.7-23.94,10.31c-8.11,3.7-15.7,8.1-20.69,15.76
	c-2.66,4.08-4.19,8.88-4.57,13.73c-0.37,4.74,0.64,9.37,1.15,14.04c-0.87-0.54-1.77-0.95-2.5-1.16c-0.98-0.29-1.91-0.1-2.4,0.42
	c-0.16-0.16-0.39-0.28-0.7-0.33C275.12,97.77,274.67,93.95,273.8,91.25z M277.33,102.43c0.67-0.47,1.57-0.78,2.75-0.89
	c0.11,0.19,0.27,0.37,0.51,0.51c2.08,1.22,2.98,3.65,4.5,5.46c2.26,2.71,3.93,5.5,5.19,8.8c1.03,2.7,1.51,5.45,2.04,8.25
	c-1.34,0-2.73,0.19-4.01-0.09c-5.37-1.19-7.98-5.07-10.21-9.81c-0.4-0.84-0.83-1.82-1.21-2.85c0.23-2.5,0.8-5.02,0.76-7.52
	C277.64,103.62,277.51,103.01,277.33,102.43z M285.09,154.83c-5.05-1.62-7.26-7.21-9.91-11.27c-2.66-4.08-1.42-10.74-0.86-15.33
	c0.38-3.05,0.18-6.11,0.86-9.12c0.18-0.81,0.44-1.59,0.69-2.37c2.21,4.71,5.54,8.82,10.78,10.23c1.22,0.33,2.52,0.62,3.79,0.69
	c0.92,0.05,1.77-0.21,2.54-0.12c0.55,1.98,1.3,3.88,1.96,5.85c0.97,2.9,1.74,5.83,1.94,8.89c0.06,0.88-0.01,1.79,0.16,2.67
	c0.21,1.11,0.95,2.18,1.09,3.27C298.83,153.78,288.96,156.07,285.09,154.83z M277.12,185.43c3.4-1.09,6.87-2.17,9.9-4.11
	c3.83-2.46,6.73-6.42,9.29-10.15c2.79-4.05,3.94-8.91,4.86-13.67c0.48-2.49,0.88-4.99,1.24-7.5c0.24-1.66,0.73-3.46,0.17-5.1
	c-0.75-2.19-2.52-3.39-2.87-5.85c-0.29-2.05-0.33-3.9-0.85-5.93c-0.64-2.45-1.14-5.82-3.19-7.57c-0.13-0.11-0.26-0.21-0.4-0.29
	c-1.16-4.73-1.84-9.5-4.17-13.99c-1.34-2.59-3.27-4.56-4.92-6.9c0.54-0.17,0.98-0.62,0.96-1.3c-0.09-4.38-1.12-8.65-1.41-13.02
	c-0.36-5.32,0.58-10.68,3.17-15.38c3.76-6.82,10.05-11.25,16.87-14.63c6.98-3.46,14.28-6.24,21.44-9.3c2.82-1.2,5.64-2.42,8.36-3.84
	c3.09-1.61,5.87-3.14,9.44-2.06c6.13,1.86,10.13,8.74,12.82,14.08c2.81,5.59,5.21,11.71,5.45,18.03c0.12,3.23-0.11,6.45-0.04,9.68
	c0.02,0.81,0.09,1.58,0.23,2.38c0.04,0.23,0.17,0.3,0.22,0.47c-0.05,0.03-0.04,0.15,0.03,0.39c0.11,0.86,0.45,1.75,1.09,2.2
	c-0.22,0.81-0.41,1.61-0.6,2.35c-1.82,7.23,0.2,14.67-0.98,21.94c-0.27,1.69-0.56,3.34-0.87,4.97c-1.11,2.82-2.15,5.73-2.99,8.69
	c-0.69,1.13-1.45,2.21-2.31,3.21c-2.75,3.19-6.35,5.83-9.74,8.29c-0.01,0.01-0.02,0.01-0.02,0.02c-0.92,0.4-1.85,0.79-2.8,1.13
	c-5.8,2.06-12.15-0.71-17.76-2.17c-2.64-0.69-9.96-3.34-11.57,0.42c-0.76,1.77,0.78,2.87,1.6,4.25c1.32,2.25,1.66,4.43,4.04,5.9
	c4.55,2.81,10.02,1.03,14.72-0.32c4.93-1.42,9-3.74,13.08-6.69c1.28-0.59,2.56-1.18,3.88-1.62c1.59-0.53,3.36-1.05,4.62-2.08
	c0.01,0.71,0.07,1.42,0.16,2.13c-0.1,3.34,0.24,6.66,1.18,9.9c1.27,4.39,3.61,8.5,6.4,12.08c3.79,4.86,8.1,9.96,12.93,14.11
	c5.96,11.5,7.89,25.15,10.12,37.77c0,0.01,0,0.03,0.01,0.04c-0.44,1.09-0.92,2.16-1.48,3.22c-1.78,3.4-3.52,7.3-6.04,10.21
	c-5.35,6.16-10.64,12.71-17.79,16.82c-15.21,8.74-33.48,11.9-50.86,10.86c-15.68-0.94-34.49-5.89-43.28-20.06
	c-1.03-1.66-2.05-3.4-2.93-5.2c0.28-2.72,0.56-5.43,0.91-8.12c1.02-8.02,1.9-16.49,0.61-24.53c-0.4-2.49-1.03-5.38-2.86-7.26
	c-0.53-0.54-1.14-0.98-1.83-1.27C267.22,189,272.1,187.04,277.12,185.43z M339.62,146.2c-1.53,0.71-3.12,1.32-4.83,1.82
	c-2.66,0.76-5.53,1.77-8.33,1.73c-3.91-0.06-5.25-2.3-7-5.5c-0.45-0.82-1.52-1.6-0.31-2.38c0.65-0.42,3.08,0.44,3.77,0.59
	c2.51,0.57,4.97,1.3,7.44,2.01C333.25,145.3,336.47,146.1,339.62,146.2z M259.77,193.79c0.2-0.1,0.38-0.22,0.65-0.26
	c0.1-0.02,0.16-0.03,0.2-0.05c0.04,0.01,0.08,0.02,0.14,0.04c1.13,0.28,1.73,1.04,2.25,2.03c1.48,2.84,1.62,6.49,1.73,9.61
	c0.26,7-0.4,14.08-1.41,21.02c-0.85-3.44-1.4-6.99-2.25-10.43C259.66,209.94,255.72,199.42,259.77,193.79z M100.75,465.07
	c0.94-0.87,2.06-1.46,3.27-1.81c0.97-0.12,1.92-0.13,2.7-0.03c1.41,0.2,2.77,0.44,4.13,0.61c0.06,0.02,0.12,0.05,0.18,0.07
	c0.66,0.17,0.71,0.26,0.17,0.27c-0.01,0.66-1.14,1.59-1.57,2.04c-1.12,1.18-2.43,2.2-3.75,3.15c-1.94,1.41-3.95,2.98-6.35,3.37
	c-0.62-0.27-1.31-0.26-2.06,0.19c-0.41,0.01-0.82-0.01-1.19-0.08c-0.3-0.38-0.72-0.66-0.86-1.16
	C94.95,470.17,99.5,466.22,100.75,465.07z M94.96,504.24c-1.82-1.98-3.49-4.48-4.85-6.81c-1.91-3.26-1.67-7.44-0.98-11.04
	c0.78-4.06,2.79-6.72,5.53-9.62c-0.85,1.92-1.47,4.1-1.93,5.63c-0.94,3.15-1.5,6.66-0.79,9.91c0.98,4.47,3.66,8.98,5.98,13.04
	C96.85,506.37,96.01,505.38,94.96,504.24z M101.19,494.82c-0.31,2.26-0.86,4.53-1.54,6.71c-0.1,0.31-0.19,0.65-0.3,1
	c-1.03-2.09-1.89-4.26-2.75-6.06c-1.33-2.8-2.33-5.25-2.11-8.44c0.14-2.01,0.64-4.01,1.28-5.92c0.18-0.55,2.15-6.39,2.98-6.43
	C100.91,475.55,101.37,493.55,101.19,494.82z M107.89,510.54c-2.92-0.4-5.01-2.29-6.66-4.72c1.48-2.78,2.05-6.7,2.49-9.12
	c0.14-0.79,0.24-1.57,0.31-2.35c0.12,0.5,0.23,0.99,0.35,1.46c1.19,4.78,3.67,9.68,7.23,13.34
	C110.62,510.18,109.39,510.74,107.89,510.54z M111.01,493.54c-0.22,2.13,0.25,4.34,0.54,6.45c0.25,1.8,0.4,3.63,0.59,5.44
	c-0.75-0.98-1.36-1.85-1.69-2.35c-2.47-3.69-3.55-8.13-4.22-12.47c-0.43-2.8-0.78-5.72-0.48-8.56c0.17-1.6,0.51-3.74,1.73-4.93
	c2.87-2.8,3.84,0.05,4.56,2.39c0.52,1.68,1.14,3.44,1.73,5.25C112.22,488.32,111.16,492.04,111.01,493.54z M114.72,502.48
	c-0.38-2.8-1.22-5.94-0.9-8.78c0.08-0.71,0.53-2.54,1.2-4.64c0.65,2.62,1.03,5.25,0.75,7.78c-0.16,1.43-0.47,3.61-1.04,5.8
	C114.73,502.59,114.73,502.53,114.72,502.48z M121.07,495.47c-0.92,2.22-2.21,4.52-2.68,6.89c-0.21,1.08,0.72,4.4,0.85,6.49
	c-0.29,0.76-0.66,1.38-1.14,1.8c-0.38-0.05-0.79-0.21-1.22-0.46c-0.57-0.63-1.02-1.27-1.31-2.08c0.71-1.5,1.22-3.09,1.63-4.42
	c1.24-4.1,1.89-8.17,1.02-12.39c-0.45-2.18-1.03-4.33-1.64-6.47c1.26-2.98,2.75-5.41,4.03-4.89c1.36,0.55,2.51,5.46,2.72,6.89
	C123.74,489.71,122.14,492.88,121.07,495.47z M144.02,501.82c-1.15,0.45-2.26,0.94-3.18,1.56c-0.11,0.08-0.22,0.15-0.33,0.23
	c-1.68,0.67-3.4,1.16-5.02,2.04c-2.53,1.38-4.93,3.15-7.63,4.21c-2.91,1.13-4.79-0.08-5.53-2.51c0.45-2.89,0.31-5.95,1.49-8.59
	c1.26-2.84,3.55-5.56,6.33-7.49c0.47-0.26,0.95-0.51,1.46-0.74c2.5-1.12,5.55-1.9,8.54-1.87c0.18,0.03,0.36,0.07,0.54,0.11
	c3.15,0.74,7.8,3.49,7.8,7.19C148.49,498.42,146.26,500.42,144.02,501.82z M146.88,487.29c-2.92-1.41-6.08-1.75-9.19-1.39
	c-1.38,0.07-2.76,0.31-4.12,0.72c-1.12,0.34-2.2,0.8-3.25,1.36c-0.41,0.18-0.81,0.37-1.21,0.57c-1.16,0.58-2.34,1.45-3.47,2.52
	c0.96-3.96,0.16-7.9-1.91-11.53c-2.72-4.79-5.76-2.39-8.19,1.74c-0.6-2.27-1.08-5.76-2.78-7.32c-3.54-3.27-8.26,1.6-9.25,4.85
	c-0.15,0.49-0.26,0.99-0.37,1.49c-0.06-0.48-0.11-0.96-0.18-1.44c-0.15-0.98-0.61-2.49-1.31-3.79c2.01-0.69,3.77-1.89,5.64-3.24
	c2.65-1.91,6.12-4.37,6.84-7.77c0.42-0.01,0.84-0.02,1.26-0.06c3.98-0.37,7.76-0.63,11.05,2.11c2.83,2.36,3.52,5.66,5.56,8.46
	c2.02,2.76,5.16,3.77,8.28,4.76c1.9,0.61,4.13,1.02,5.4,2.68c0.94,1.24,1.27,3,1.89,4.4c0.39,0.87,0.81,1.6,1.34,2.2
	C148.3,488.27,147.68,487.68,146.88,487.29z M146.31,478.68c-3.71-2.51-9.38-1.92-12.1-5.91c-0.82-1.2-1.48-2.44-2.14-3.65
	c11.71-7.72,14.96-22.4,18.8-35.05c1.41-4.65,3.32-9.13,4.69-13.79c1.26-4.31,2.15-8.72,3.8-12.91c3.21-8.13,9.33-14.97,14.21-22.11
	c5-7.31,8.27-14.52,9.96-23.22c2.02-10.38,3.38-20.88,4.94-31.34c1.96-13.18,4.77-25.9,8.26-38.72c3.45-12.67,4.38-25.76,6.84-38.61
	c1.28-6.68,2.31-13.21,2.93-19.99c0.67-7.35,1.78-15.06,6.07-21.27c2.42-3.5,5.78-6.37,9.55-8.33c4.23-2.2,8.85-2.23,13.42-3.11
	c4.7-0.9,9.24-2.93,13.76-4.48c2.52-0.86,4.99-1.82,7.45-2.81c-2.38,4.67-1.13,10.89-0.11,15.78c0.96,4.57,2.23,9.06,3.21,13.63
	c0.71,3.3,1.28,6.36,2.64,9.46c-1.13,9.08-1.76,18.07-5.67,26.62c-3.46,7.57-8.32,14.3-11.67,21.95c-0.12,0.1-0.23,0.23-0.32,0.4
	c-3.1,5.8-3.9,11.43-4.89,17.8c-0.68,4.35-2.19,8.62-3.34,12.87c-1.31,4.86-2.42,9.18-2.26,14.24c0.14,4.45-0.82,8.81-1.43,13.21
	c-0.65,4.73-1.3,9.47-2.15,14.17c-2.93,16.21-6.83,32.31-12.21,47.87c-5.54,15.99-15.69,30.22-27.43,42.33
	c-0.24,0.24-0.48,0.48-0.72,0.73c-4.28-1.18-8.73-1.8-13.44-1.66c-5.42,0.16-11.03,0.76-15.73,3.46c-3.44,1.98-7.08,5.44-5.56,9.87
	c0.59,1.72,1.86,2.86,3.39,3.64c-0.88,0.46-1.62,1.07-2.08,1.85c-1.51,2.54,0.83,4.31,2.99,5.23c-0.27,0.27-0.52,0.59-0.72,0.96
	c-1.57,2.87,0.14,5.28,2.66,7.25c-0.91,0.92-1.82,1.84-2.69,2.82c-2.01,2.25-4.2,4.49-5.89,6.99c-0.48,0.71-0.91,1.7-1.45,2.51
	c-1.72-0.38-2.38-3.82-2.97-5.15C148.31,480.8,147.59,479.55,146.31,478.68z M166.02,465.47c-1.22-0.27-2.45-0.48-3.65-0.82
	c-1.5-0.43-4.08-1.34-1.5-2.51c1.07-0.49,2.15-0.78,3.25-0.93c0.21,0.03,0.42,0.06,0.62,0.09c2.64,0.38,5.31,0.54,7.97,0.8
	c0.04,0.01,0.08,0.02,0.12,0.03c-1.16,1.36-2.25,2.77-3.33,4.19C168.35,466.01,167.19,465.73,166.02,465.47z M167.55,468.91
	c-0.01,0.01-0.02,0.03-0.03,0.04c-1.09,1.43-2.28,2.72-3.51,3.98c-1.92-1.59-2.84-3.26-0.3-4.4c0.58-0.26,1.45-0.2,2.38,0
	c0.15,0.03,0.3,0.07,0.45,0.1C166.88,468.71,167.22,468.81,167.55,468.91z M172.74,459.28c-2.37-0.62-4.76-1.1-7.23-1
	c-0.44,0.02-0.92,0.05-1.43,0.11c-0.64-0.12-1.27-0.27-1.88-0.47c-4.01-1.27-5.15-5-1.68-7.93c4.1-3.47,10.05-4.08,15.22-4.35
	c4.2-0.22,8.41,0.07,12.51,0.98c-4.35,4.31-8.85,8.48-13.07,12.92C174.37,459.44,173.56,459.36,172.74,459.28z M175.76,488.92
	c-7.42,2.49-14.79,5.25-21.89,8.55c-1.18,0.55-2.36,1.11-3.54,1.67c1.11-2.19,1.24-4.65-0.24-7.1c0.32,0,0.65-0.05,1-0.18
	c2.13-0.75,3.35-3.55,4.5-5.29c1.92-2.91,4.29-5.46,6.72-7.97c0,0.5,0.09,1.08,0.29,1.75c2.08,7.02,11.65,5.67,17.44,5.73
	c1.78,0.02,3.57,0.01,5.37,0.01C182.15,486.89,178.94,487.85,175.76,488.92z M196.24,483.54c-2.17-0.15-4.35-0.22-6.51-0.24
	c-4.75-0.07-9.5,0.04-14.25-0.13c-2.39-0.08-5.99,0.2-8.19-0.95c-0.72-0.38-2.06-1.57-1.97-2.61c0.19-2.31,2.91-0.49,4.3,0.19
	c0.74,0.42,1.4,0.16,1.77-0.35c0.44-0.49,0.54-1.24-0.06-1.86c-0.67-0.69-0.93-0.89-1.73-1.42c-0.34-0.22-0.67-0.27-0.97-0.21
	c-0.74-0.42-1.56-0.9-2.37-1.41c1.44-1.51,2.82-3.06,4.09-4.71c1.51,0.49,2.99,1.07,4.47,1.67c0.41,0.18,0.83,0.35,1.24,0.51
	c0.65,0.27,1.19-0.04,1.49-0.53c0.08-0.12,0.14-0.24,0.18-0.38c0.01-0.03,0.02-0.06,0.03-0.1c0.01-0.02,0.01-0.04,0.02-0.06
	c0.06-0.22,0.07-0.45,0.02-0.68c-0.06-0.28-0.2-0.53-0.46-0.72c-0.95-0.99-2.26-2.47-3.74-1.94c-0.02,0.01-0.05,0.02-0.07,0.03
	c-0.38-0.15-0.76-0.29-1.14-0.43c1.16-1.45,2.37-2.85,3.61-4.23c2.07,0.57,4.12,1.09,6.15,1.29c0.42,0.17,0.98,0.21,1.68,0.04
	c0.01,0,0.02-0.01,0.02-0.01c0.01,0,0.02-0.01,0.04-0.01c0.63-0.18,0.91-0.63,0.94-1.12c0.09-0.43,0-0.89-0.38-1.21
	c-0.87-0.76-1.59-1-2.15-0.92c-1.19-0.4-2.39-0.71-3.61-0.95c3.1-3.25,6.34-6.36,9.59-9.53c1.05-1.02,2.07-2.06,3.08-3.1
	c0.36,0.11,0.72,0.21,1.08,0.34c10.2,3.46,19.23,10.23,28.22,15.97c2.11,1.34,5.23,3.43,8.35,4.5
	c-10.82,3.54-21.02,8.95-30.95,14.44C197.46,483.03,196.85,483.3,196.24,483.54z M238.02,500.79c-8.01-3.59-15.14-8.86-22.99-12.76
	c-4.27-2.12-8.83-3.3-13.49-3.95c0.7-0.43,1.4-0.85,2.09-1.22c3.31-1.8,6.64-3.55,10.03-5.2c6.66-3.26,13.54-6.12,20.71-8.06
	c12.11-3.28,32.7-6.28,40.76,6.17c1.45,2.25,2.73,4.63,4.53,6.63c2.38,2.64,5.4,3.99,8.56,5.51c4.42,2.13,8.93,4.14,13.56,5.78
	c-0.91,0.05-1.83,0.09-2.75,0.14c-8.52,0.43-16.4,3.04-24.68,4.94c-8.53,1.96-17.23,3.71-25.86,5.71
	C244.9,503.48,241.38,502.3,238.02,500.79z M267.13,515.31c-7.96,3.9-16.53,6.31-25.07,8.58c-8.08,2.14-16.23,4.11-24.14,6.87
	c-3.82,1.33-7.41,3.14-11.17,4.57c-2.01,0.77-3.82,0.5-5.78,1.14c-1.42,0.47-2.75,1.42-4.07,2.11c-3.62,1.89-8,4.19-12.2,2.97
	c-2.86-0.83-1.31-1.45,0.22-2.81c1.5-1.33,3.04-2.61,4.59-3.89c6.27-5.18,12.89-9.97,20.02-13.91
	c12.18-6.73,25.89-10.41,39.51-13.56c1.94,0.54,3.9,1.05,5.88,1.55c4.34,1.1,8.7,2.15,13.02,3.32c1.11,0.3,2.23,0.59,3.35,0.9
	C269.91,513.89,268.53,514.62,267.13,515.31z M274.8,511.16c-2.65-0.88-5.46-1.47-8.07-2.15c-3.96-1.04-8.02-1.93-12.07-2.91
	c1.6-0.36,3.19-0.72,4.78-1.07c8.68-1.96,17.73-3.38,26.23-6.05c5.28-1.65,10.68-2.17,16.13-2.46c-4.47,1.38-8.71,3.18-12.96,5.88
	C284.19,505.34,279.57,508.37,274.8,511.16z M512.85,554.54c-0.92,0.58-1.84,1.15-2.78,1.71c-0.09,0.05-0.17,0.11-0.24,0.18
	c-13.79,0.1-27.59,0.15-41.38,0.12c-36.29-0.07-72.48,0.09-108-8.38c-17.12-4.08-32.72-12.24-48.43-19.96
	c-8.25-4.06-16.47-8.19-24.76-12.16c-1.19-0.57-2.06-0.88-3.34-1.13c-1.97-0.4-3.42-1.18-5.17-2.12c-0.23-0.12-0.46-0.23-0.7-0.34
	c4.85-2.95,9.56-6.11,14.43-9.05c5.83-3.53,12.76-5.61,19.67-6.78c13.57,2.91,27.75,2.75,41.51,3.53c16.68,0.95,33.4,1.11,50.1,1.02
	c18.48-0.09,36.95-0.48,55.43-0.37c9.3,0.05,18.6,0.22,27.89,0.61c9.47,0.39,18.13,1.58,26.43,6.37c0.04,0.37,0.25,0.71,0.71,0.93
	c2.66,1.28,4.87,2.54,6.91,4.71c1.91,2.03,4.26,3.57,6.14,5.61c3.69,3.99,5.91,9.99,6.65,15.51c-1.42,2.49-3.15,4.84-5.11,7.02
	c-4.22,4.67-9.21,8.55-14.47,11.98C513.69,553.8,513.17,554.14,512.85,554.54z M527.49,555.4c-1.48,0.34-3.08,0.15-4.58,0.09
	c-0.92-0.03-4.65,0.47-6.59,0.18c6.71-4.42,13.24-9.71,17.92-16.21c0.02,2.06-0.04,4.12,0.11,6.17c0.08,1.16,0.57,3.18,0.05,4.27
	c-0.52,1.07-1.81,1.47-2.67,2.19C530.27,553.31,529.5,554.94,527.49,555.4z"/>
</svg>
