<?xml version="1.0" encoding="utf-8"?>
<!-- Generator: Adobe Illustrator 26.2.1, SVG Export Plug-In . SVG Version: 6.00 Build 0)  -->
<svg version="1.1" id="Layer_1" xmlns="http://www.w3.org/2000/svg" xmlns:xlink="http://www.w3.org/1999/xlink" x="0px" y="0px"
	 viewBox="0 0 566.84 343.74" style="enable-background:new 0 0 566.84 343.74;" xml:space="preserve">
<style type="text/css">
	.st0{fill:#FFFFFF;}
</style>
<path class="st0" d="M548.43,312.46c-8.48-0.45-16.91,0.92-25.38,0.69c-8.55-0.23-17.07-0.91-25.64-0.98
	c-8.74-0.07-17.49,0.11-26.22-0.16c-8.5-0.26-17-1.1-25.51-1.25c-9.75-0.17-19.5,0.4-29.25,0.17c-1.01-3.33,0.1-6.01,1.77-8.68
	c0.12-0.14,0.24-0.28,0.37-0.41c0.13-0.13,0.2-0.27,0.25-0.42c0.03,0,0.06,0.01,0.09,0.02c3.08,0.48,6.03-0.81,8.49-2.59
	c2.45-1.77,3.62-4.33,2.32-7.25c-0.06-0.13-0.12-0.25-0.19-0.37c0.17-0.34,0.12-0.78-0.1-1.1c1.8-3.43,3.47-7.11,4.5-10.8
	c1.11-3.96,1.68-8.05,2.7-12.04c1.16-4.57,2.59-9.07,3.95-13.57c3.62-11.92,7.09-23.93,9.01-36.26c1.88-12.03,2.53-24.84-1.26-36.57
	c-1.77-5.46-4.54-10.56-8.38-14.85c-5-5.58-11.75-9.41-18.26-12.95c-4.9-2.66-10.05-5.03-15.49-6.36c-3.39-0.83-6.88-1.1-10.28-1.88
	c-1.87-0.43-3.69-1.03-5.44-1.81c-1.47-0.66-2.99-1.33-3.81-2.8c-0.88-1.57-0.92-3.57-1.38-5.27c-0.86-3.16-3.01-5.22-6.3-5.7
	c-0.7-0.1-1.45-0.12-2.22-0.11c-0.89-0.43-1.87-0.55-2.92-0.16c-0.22,0.08-0.43,0.18-0.64,0.3c-1.24,0.03-2.45-0.03-3.53-0.34
	c-1.04-1.63-2.4-3.11-3.93-4.4c-0.93-3.58,0.51-7.55,2.16-10.7c0.94-1.8,1.93-3.39,2.41-5.38c0.66-2.72,1.23-5.46,1.94-8.17
	c2.43-9.32,5.87-18.5,5.32-28.28c-0.92-16.34-12.84-30.51-27.8-36.36c-1.76-0.69-3.94-0.94-5.59-1.79
	c-0.43-0.22-0.74-0.62-1.16-0.86c-1.08-0.6-2.57-0.85-3.74-1.19c-4.7-1.36-9.49-2.38-14.35-2.97c-9.23-1.13-18.39-0.12-27.02,3.42
	c-7.8,3.2-14.87,8.17-21,13.92c-4.71,4.42-10,10.53-6.99,17.39c1.53,3.5,5.64,5.76,5.65,9.86c0,0.33,0.13,0.57,0.31,0.74
	c0,1.8-0.09,3.56-0.21,5.32c-0.01,0.11-0.04,0.23-0.05,0.33c-0.01,0.09,0,0.17,0.01,0.25c-0.12,1.63-0.27,3.27-0.42,4.93
	c-0.25,2.87-0.73,5.55-0.35,8.45c0.44,3.39,1.82,6.8,3.42,9.8c1.8,3.38,2.99,7.35,3.22,11.19c0.08,1.37-0.27,2.69-0.19,4.02
	c-0.89-0.58-1.95-0.94-3.2-0.97c-2.6-0.07-5.1,0.76-7.42,1.87c-3.49,1.68-7.07,3.12-10.68,4.51c-2.68,1.03-5.35,2.06-7.99,3.19
	c-3.06,1.32-5.3,2.46-7.63,4.82c-3.95,4-7.41,8.47-10.44,13.2c-6.06,9.46-10.42,19.9-14.4,30.37c-4.62,12.15-9.28,24.32-13.63,36.57
	c-4.19,11.83-9.44,25.07-8.25,37.84c0.4,4.26,1.44,8.38,4.37,11.36c-2.11-0.23-4.21-0.44-6.27-0.67c-6.25-0.7-12.53-0.98-18.79-0.2
	c-2.76,0.35-4.05,1.29-5.84,3.43c-2.17,2.59-4.36,5.16-6.45,7.81c-1.94,2.46-3.79,4.99-5.46,7.64c-1.19,1.9-2.31,3.62-2.64,5.74
	c-0.97-2.24-1.95-4.49-2.67-6.85c-1.67-5.46-3.18-10.88-5.06-16.28c-1.93-5.55-3.85-11.11-5.79-16.65
	c-2.16-6.15-4.39-12.3-6.19-18.57c-1.81-6.29-3.31-12.66-5.51-18.83c-0.06-0.16-0.15-0.3-0.25-0.4c-0.71-1.76-2.45-2.44-4.43-2.56
	c-4.38-0.27-8.85-0.08-13.24-0.04c-10.06,0.09-20.11,0.44-30.16,0.87c-19.91,0.86-39.81,2.02-59.74,2.1
	c-3.43,0.01-13.89-1.62-12.79,4.65c0.03,0.17,0.09,0.3,0.17,0.41c0.01,0.1,0.03,0.2,0.07,0.31c4.9,11.99,9.58,24.08,14.33,36.13
	c5.67,14.38,10.3,29.13,16.15,43.44c3.23,7.88,5.54,16.36,10.59,23.34c0.02,0.03,0.05,0.05,0.07,0.08c0.02,0.02,0.03,0.05,0.05,0.07
	c1.45,1.7,3.37,2.26,5.52,2.56c3.38,0.47,6.8,0.71,10.2,1.05c7.33,0.74,14.65,1.47,21.98,2.16c14.1,1.33,28.21,2.5,42.35,3.29
	c7.04,0.39,14.09,0.69,21.14,0.87c6.89,0.17,13.86,0.46,20.74-0.15c13.44-1.19,26.4-5.23,39.35-8.76
	c6.51-1.77,13.06-3.45,19.72-4.59c5.56-0.95,11.08-0.46,16.64-1.15c0.91-0.11,1.8-0.31,2.68-0.57c2.11,0.35,4.22,0.7,6.34,1.04
	c27.65,4.48,55.65,3.66,83.55,3.44c7.89-0.06,15.77-0.07,23.65,0.24c7.77,0.3,15.24-0.77,22.95-1.24
	c6.46-0.39,13.25-0.11,19.37-2.55c2.3-0.92,3.99-2,5.54-3.91c0.01-0.01,0.02-0.02,0.03-0.04c-0.08,1.36,0.11,2.79,0.71,4.33
	c0.17,0.44,0.5,0.74,0.99,0.76c8.83,0.25,17.66-0.19,26.49-0.18c8.51,0,17.07,0.56,25.56,1.08c17.28,1.06,34.64-0.14,51.94,1.12
	c9.6,0.7,19.15-1,28.76-0.49C549.75,314.58,549.75,312.53,548.43,312.46z M416.65,298.54c0.12-0.26,0.13-0.57-0.06-0.9
	c-0.15-0.26-0.3-0.52-0.45-0.79c0-0.01,0-0.02,0-0.03c0.04-0.45-0.18-0.75-0.49-0.89c-0.82-1.58-1.54-3.21-2.35-4.8
	c-1.33-2.61-3.12-5.01-4.75-7.45c-3.01-4.51-6.05-9.01-9.17-13.45c-5.23-7.43-10.31-14.92-17.49-20.49
	c17.86,3.48,31.68,21.79,41.52,35.9c0.19,0.28,0.45,0.41,0.72,0.45c0.26,0.48,0.48,0.98,0.74,1.56c0.39,0.88,1.08,1.75,1.73,2.65
	c-3.73,1.58-6.1,4.91-8.4,8.27c-0.15,0.22-0.3,0.43-0.44,0.65C417.3,299.08,416.93,298.85,416.65,298.54z M258.71,266.37
	c0.41-5.44,1.96-10.93,3.23-16.22c5.1-21.21,12.83-41.64,17.92-62.85c-0.65,4.9-1.49,9.77-2.31,14.64
	c-0.95,5.65-2.02,11.37-2.45,17.1c-0.45,6.02-0.96,11.91-2.15,17.85c-1.12,5.57-2.57,11.08-4.31,16.49
	c-1.64,5.1-3.31,11.53-7.92,14.84c-0.67,0.48-1.38,0.84-2.1,1.06C258.6,268.26,258.64,267.26,258.71,266.37z M251.5,191.88
	c1.32-5.4,3.44-10.68,5.8-15.71c0.99-2.11,2.06-4.19,3.18-6.24c1.36-2.48,3.08-6.87,5.54-8.38c1.13-0.7,2.59-0.87,3.79-1.41
	c1.13-0.51,2.09-1.3,3.15-1.95c2.01-1.23,4.13-2.29,6.04-3.68c1.55-1.13,3.1-2.52,3.97-4.27c0.14-0.27,0.26-0.58,0.4-0.86
	c0.48-0.94,0.37-1.19,1.41-1.43c0.99-0.23,2.03-0.12,3.03-0.4c0.87-0.24,1.59-0.64,2.2-1.15c3.45,4.14,7.41,8.49,12.05,11.42
	c-0.02,0.03-0.04,0.07-0.06,0.1c-0.08,0-0.16,0.01-0.24,0.01c-0.67,0.02-1,0.57-0.99,1.09c-0.36,0.17-0.73,0.34-1.09,0.51
	c-1.15,0.54-2.31,1.06-3.47,1.59c-2.3,1.04-4.61,2.07-6.89,3.16c-4.49,2.14-8.91,4.49-12.89,7.48c-1.85,1.39-3.64,2.9-5.23,4.58
	c-0.52,0.55-0.78,0.93-1.17,1.56c-0.87,1.44-1.81,2.48-2.93,3.73c-3.3,3.67-5.94,7.85-8.39,12.12c-3.28,5.7-6.44,11.37-9.2,17.24
	C249.44,204.57,249.97,198.16,251.5,191.88z M290.3,142.15c-0.09,0.29-0.19,0.57-0.31,0.85c-0.04-0.13-0.08-0.26-0.11-0.37
	c-0.4-1.57-0.83-3.13-1.26-4.69c-0.87-3.22-1.76-6.44-2.64-9.67c1.69,2.08,3.25,4.22,3.99,6.88
	C290.61,137.4,290.98,139.86,290.3,142.15z M256.85,271.59c0.63,3.6,2.41,6.52,6.29,7.35c1,0.21,2.01,0.29,3.03,0.33
	c-1.62,0.3-3.23,0.58-4.86,0.83c-3.07,0.47-5.97,0.77-9.01-0.06c-2.85-0.77-5.45-2.24-7.83-3.96c-2.05-1.48-3.72-3.63-5.79-5.02
	c-0.4-0.27-0.86-0.39-1.34-0.47c0.52-0.1,1.04-0.23,1.54-0.41c2.26-0.81,4.21-2.24,6.17-3.59c1.49-1.02,2.13-2.14,3.73-0.4
	c0.95,1.03,1.65,2.25,2.71,3.21C253.11,270.87,254.97,271.58,256.85,271.59z M267.18,277.2c-2.42-0.09-5.08-0.02-6.8-2.04
	c-0.87-1.02-1.33-2.38-1.56-3.82c1.21-0.31,2.4-0.9,3.5-1.77c4.03-3.17,5.84-8.3,7.43-12.98c2.34-6.87,4.23-13.9,5.56-21.04
	c1.3-6.94,1.47-13.92,2.37-20.9c0.97-7.57,2.43-15.06,3.57-22.6c0.55-3.6,1.03-7.21,1.37-10.83c0.38-4.05,0.8-8.06,2.47-11.82
	c0.13-0.27,0.15-0.52,0.1-0.74c3.43-1.85,6.99-3.46,10.53-5.07c2.31-1.05,4.68-2.03,6.94-3.19c0.28-0.14,0.59-0.32,0.87-0.54
	c0.82-0.07,1.65-0.12,2.44-0.03c0.55,0.22,1.11,0.43,1.67,0.61c0.39,0.12,0.77,0.22,1.14,0.3c0.32,0.13,0.63,0.25,0.92,0.35
	c3,1.03,5.82,3.75,7.43,6.49c1.23,2.09,1.7,4.56,2.12,6.96c-1.46,3.46-2.8,7.14-3.36,10.82c-0.34,2.27-1.23,4.4-1.95,6.58
	c-0.89,2.69-1.53,5.3-2,8.1c-0.95,5.65-1.67,11.34-3.65,16.74c-2.05,5.62-3.91,11.3-5.7,17c-3.38,10.72-7.42,21.31-9.03,32.45
	c-0.13,0.89-0.25,1.82-0.39,2.76c-1.23,2.23-2.56,4.1-4.12,6.08c-0.66,0.13-1.31,0.28-1.94,0.46c-0.82,0.24-1.51,0.77-2.29,1.09
	c-1.92,0.78-4.3,0.52-6.36,0.72c-1.17,0.11-2.33,0.26-3.49,0.43C272.37,277.57,269.8,277.3,267.18,277.2z M331.97,163.2
	c-0.01,0.15,0.01,0.28,0.05,0.4c-2.05-0.01-4.07,0.46-5.89,1.64c-2.39,1.55-4.13,3.76-5.46,6.22c-0.6-2.5-1.47-4.81-3.17-6.86
	c-1.09-1.32-2.36-2.7-3.8-3.77c1.28-0.22,2.56-0.61,3.87-1.13c1.6-0.63,2.31-0.56,4.19-1.36c4.2-1.8,8.11-4.2,11.54-7.23
	c0.01-0.01,0.03-0.03,0.04-0.04C332.62,155.08,332.21,159.14,331.97,163.2z M319.91,187.15c-0.45,2.74-1.44,5.37-2.37,7.97
	c-1.16,3.26-2.2,6.56-3.39,9.81c-0.63,1.71-1.26,3.41-1.88,5.11c0.1-0.45,0.2-0.89,0.29-1.34c1.11-5.91,1.86-11.67,3.74-17.39
	c1.38-4.21,2.23-8.46,3.63-12.66C320.29,181.47,320.36,184.39,319.91,187.15z M307.57,225.06c-1.37,5.53-2.59,11.09-4.26,16.54
	c-1.84,6.02-4.35,11.81-6.41,17.75c-0.14,0.4-0.27,0.8-0.41,1.2c1.1-5.42,3.17-10.63,4.83-15.89c1.87-5.96,3.7-11.94,5.66-17.87
	C307.18,226.21,307.37,225.64,307.57,225.06z M294.85,270.83c0.05-0.25,0.09-0.49,0.13-0.74c0.84-1.58,1.59-3.21,2.18-4.86
	c2.31-6.47,4.68-12.94,6.94-19.43c2.27-6.54,3.76-13.3,5.41-20.01c1.87-7.61,4.66-14.77,7.28-22.13c2.37-6.65,5.48-13.58,5.43-20.75
	c-0.02-2.76-0.38-5.43-0.87-8.11c1.47-3.5,3.53-6.91,7.07-8.51c5.61-2.53,12.73,1.67,16.57,5.56c2.51,2.55,6.12,7.48,10.18,7.38
	c4.19-0.1,2.86-4.63,1.15-6.71c-3.49-4.24-8.1-7.46-11.58-11.73c-0.54-0.66-0.68-1.22-0.59-1.74c3.38-0.03,6.86,0.14,9.87,1.85
	c1.87,1.07,2.85,2.35,3.51,4.35c0.4,1.23,0.78,2.34,1.49,3.43c1,1.55,1.95,2.9,2.78,4.55c0.31,0.62,0.55,1.27,1.17,1.65
	c1.33,0.81,2.63-0.1,3.57-1.06c3.9-3.99,6.47-9.59,9.12-14.42c1.73-3.16,3.67-6.16,5.6-9.19c1.18-1.86,2.77-3.39,4.14-5.09
	c1.63,3.33,2.99,6.78,4.13,10.33c0.94,2.92,1.69,5.91,1.95,8.97c0.29,3.43-0.32,6.65-0.89,10.02c-1.02,6.01-1.96,12.04-3,18.05
	c-1.02,5.91-2.14,11.81-3.51,17.65c-1.36,5.78-2.47,12.12-6.08,16.97c-1.38,1.85-2.95,3.13-3.47,5.46
	c-0.42,1.92-0.16,3.91,0.64,5.69c0.35,0.78,0.81,1.48,1.34,2.11c-0.12,0.03-0.24,0.05-0.36,0.08c-3.04,0.82-5.07,3.89-2.34,6.28
	c0.23,0.2,0.47,0.39,0.72,0.58c-4.66,0.17-9.07,1.2-13.52,3.02c-4.68,1.91-8.34,5.31-12.87,7.42c-2.74,1.27-5.58,1.37-8.51,1.79
	c-3.22,0.47-6.31,1.88-9.34,3.01c-5.67,2.12-11.31,4.32-17.03,6.31c-5.56,1.94-11.19,3.7-16.93,4.99c-0.73,0.16-1.48,0.29-2.24,0.41
	C294.43,273.14,294.63,271.89,294.85,270.83z M372.42,132.84c0.37-0.37,0.91-1.11,1.33-1.34c0.18-0.1,0.34-0.18,0.49-0.25
	c0.63-0.05,1.26-0.09,1.89-0.11c0.48,0.26,0.83,0.75,1.29,1.2c2.12,2.02,3.74,5.25,5.23,7.76c0.59,0.99,1.15,2,1.68,3.01
	c-1.36,1.85-3.12,3.39-4.4,5.33c-1.8,2.74-3.59,5.51-5.2,8.37c-2.85,5.07-5.42,10.46-9.14,14.98c-0.91,1.11-1.44,1.71-2.15,0.16
	c-0.59-1.3-1.34-2.45-2.16-3.61c-1.5-2.13-1.69-4.93-3.34-6.93c-2.92-3.55-7.91-4.31-12.33-4.4c0.22-0.2,0.44-0.41,0.66-0.62
	c0.98-0.95,1.97-1.89,2.98-2.8c2.25-2.05,4.59-4.01,7.03-5.83c4.59-3.42,8.68-7.67,12.8-11.64
	C370.2,135.03,371.32,133.94,372.42,132.84z M428.23,294.37c-0.27,2.6-4.71,4.82-8.13,5.08c2.07-3.02,4.18-6.04,7.63-7.36
	C428.09,292.82,428.31,293.57,428.23,294.37z M390.31,145.19c6.72,2.84,14.2,2.71,21.04,5.3c7.06,2.68,13.78,6.63,20.04,10.83
	c5.03,3.38,9.18,7.89,12.06,13.23c5.77,10.7,6.24,23.46,5.08,35.31c-1.2,12.28-4.3,24.32-7.77,36.14c-1.44,4.92-2.97,9.8-4.42,14.72
	c-1.68,5.69-2.66,11.51-4.15,17.24c-0.95,3.65-2.54,7.31-4.3,10.71c-0.49-0.71-0.97-1.43-1.3-2.23c-0.29-0.71-0.4-1.45-0.85-2.08
	c-0.44-0.62-1.52-1.1-1.66-1.89c-0.1-0.54-0.5-0.76-0.91-0.74c-5.36-7.57-11.01-15.01-17.93-21.23
	c-7.5-6.75-16.64-12.47-26.91-13.12c-1.97-1.06-4.9-2.76-2.67-4.5c0.83-0.64,1.95-0.59,2.98-0.49c2.07,1.55,4.58,2.66,6.81,3.71
	c4.81,2.26,9.71,3.27,14.81,4.5c4.1,0.99,9.02,1.94,13.24,1.26c2.93-0.47,7.23-2.83,5.91-6.34c-1.29-3.46-5.32-4.63-8.66-4.98
	c-5.81-0.6-11.87-0.05-17.7,0.06c-2.92,0.05-5.84,0.08-8.75,0.02c-1.61-0.04-3.41-0.34-5.15-0.4c-0.13-0.11-0.26-0.21-0.38-0.33
	c-1.75-1.67-2.71-4.14-2.29-6.54c0.46-2.66,3.07-4.63,4.46-6.9c2.7-4.4,3.69-9.85,4.88-14.81c2.63-10.97,4.32-22.12,6.16-33.24
	c0.88-5.32,2.05-10.38,1.32-15.8c-0.67-4.95-2.35-9.81-4.27-14.41c-0.69-1.65-1.44-3.26-2.25-4.85
	C387.83,144.11,389.05,144.66,390.31,145.19z M382.98,242.62c0.44,0.01,0.88,0.03,1.32,0.04c5.84,0.13,11.68-0.12,17.52-0.19
	c4.27-0.05,10.96-1.05,14.48,2.06c2.52,2.23,0.45,4.33-2.1,5.08c-2.15,0.63-4.53,0.37-6.71,0.06c-4.87-0.68-9.79-1.44-14.51-2.86
	c-2.5-0.75-4.92-1.73-7.26-2.87C384.85,243.52,383.91,243.09,382.98,242.62z M383.87,138.13c-0.56-0.92-1.14-1.82-1.73-2.72
	c-0.71-1.06-1.62-2.64-2.73-4c0.07,0.02,0.13,0.03,0.2,0.05C382.92,132.39,383.26,135.32,383.87,138.13z M277.62,72.87
	c-0.22-3.05-2.19-5.14-4.08-7.47c-2.79-3.44-3.11-7.33-0.87-11.15c1.96-3.34,4.98-5.96,7.82-8.54c3.21-2.92,7.01-5.63,10.76-7.84
	c8.12-4.77,17.23-7.52,26.68-7.48c4.93,0.02,9.89,0.78,14.7,1.84c2.38,0.52,4.74,1.15,7.07,1.85c0.93,0.28,1.89,0.5,2.72,0.99
	c0.45,0.26,0.73,0.57,1.23,0.77c1.79,0.73,3.78,1.07,5.59,1.79c2.04,0.8,4.02,1.77,5.91,2.87c3.49,2.04,6.66,4.57,9.44,7.51
	c6.34,6.7,10.53,15.14,10.95,24.43c0.45,9.75-3.12,18.95-5.51,28.25c-0.57,2.24-1.08,4.48-1.59,6.73c-0.59,2.6-2.11,4.53-3.13,6.93
	c-1.12,2.65-2.04,5.56-1.88,8.46c-1.36-0.91-2.77-1.68-4.14-2.3c-1.67-0.75-5.01-1.45-5.94-3.23c-0.5-0.95-0.22-1.51,0.63-2.14
	c0.91-0.67,1.21-0.36,2.25-0.42c1.12-0.06,1.92-0.5,2.61-1.38c1.73-2.19,2.21-5.49,2.62-8.15c0.57-3.74,1.08-7.51,1.6-11.25
	c0.69-5.01-4.07-8.64-8.56-6.05c-2.39,1.38-3.99,3.58-5.48,5.82c-2.52,3.81-5.79,1.84-8.5-0.62c-2.27-2.06-4.38-4.37-6.57-6.53
	c-3.18-3.15-5.42-6.57-6.11-11.06c-0.87-5.62-5.42-8.07-10.84-7.67c-6.3,0.47-11.59,3.86-16.77,7.13
	c-3.56,2.25-7.44,4.93-11.95,3.86c-2.15-0.51-1.62-2.08-2.53-3.63c-0.55-0.94-1.47-1.76-2.31-2.42c-1.55-1.22-3.64-2.08-4.96-0.13
	c-0.18,0.27-0.36,0.56-0.54,0.86C277.92,73.25,277.8,73.02,277.62,72.87z M278.17,97.85c-1.39-3.84-1.55-7.41-1.05-11.4
	c0.31-2.44,0.54-4.83,0.68-7.22c0.4-1.72,1.76-5.47,2.95-5.65c0.8-0.12,2.34,1.56,2.8,2.15c0.84,1.09,0.74,2.34,1.36,3.5
	c0.99,1.86,3.34,1.77,5.18,1.77c3.17,0,5.75-0.74,8.45-2.42c5.44-3.38,10.71-7.49,17.2-8.5c2.7-0.42,5.93-0.34,8.1,1.55
	c2.54,2.22,2.13,6.55,3.52,9.5c1.38,2.95,3.43,5.26,5.75,7.51c2.08,2.02,4.02,4.22,6.18,6.14c2.93,2.61,7.28,5.01,10.49,1.45
	c1.93-2.13,2.89-4.77,5.47-6.38c1.81-1.13,3.81-1.22,5.14,0.71c1.3,1.88,0.4,4.16,0.11,6.21c-0.47,3.27-0.71,6.57-1.35,9.81
	c-0.29,1.47-0.61,3.1-1.32,4.44c-1.18,2.22-2.14,1.24-3.95,1.67c-1.85,0.44-3.18,2.57-2.83,4.44c0.37,1.95,2.41,3.1,4.05,3.86
	c2.92,1.36,6.2,2.82,8.91,4.85c0.61,1.83,1.71,3.5,3.39,4.51c0.34,0.2,0.69,0.36,1.05,0.49c0.35,0.68,0.63,1.4,0.85,2.18
	c-0.11,0.12-0.23,0.23-0.34,0.34c-2.01,1.96-4.05,3.89-6.1,5.81c-4.1,3.83-8.46,7.24-12.71,10.88c-1.95,1.67-3.83,3.42-5.67,5.21
	c-1.19,1.17-2.97,2.27-2.76,4.13c0.19,1.66,1.65,3.01,2.7,4.18c1.77,1.97,3.71,3.77,5.62,5.6c0.87,0.83,1.74,1.65,2.59,2.5
	c0.77,0.77,2.52,2.14,2.84,3.22c1.01,3.47-1.99,1.81-3.05,1.12c-1.28-0.83-2.38-1.87-3.44-2.95c-3.19-3.24-6.02-6.14-10.28-7.96
	c-1.55-0.66-3.19-1.15-4.85-1.38c0.1-0.14,0.16-0.32,0.17-0.53c0.29-5.06,0.86-10.09,2-15.03c4.5-5.23,12.03-15.28,7.56-16.29
	c-1.73-0.39-3.94,1.48-4.88,2.78c-1.71,2.37-2.64,5.78-3.49,8.53c-0.44,1.43-0.82,2.87-1.15,4.32c-1.96,2.02-4.13,3.85-6.49,5.4
	c-2.62,1.73-5.79,3.56-8.72,4.28c-0.78,0.19-1.46,0.38-2.22,0.69c-2.33,0.94-4.56,1.37-6.97,0.94c-0.88-0.37-1.77-0.75-2.69-0.94
	c-0.21-0.05-0.43-0.08-0.65-0.1c-5.96-2.54-10.87-8-14.96-12.95c1.25-2.05,1.52-4.81,1.22-7.21c-0.27-2.16-0.81-5.09-2.02-6.94
	c-0.23-0.35-0.6-0.61-0.88-0.91c-0.77-0.84-1.08-1.69-1.71-2.6c-0.87-1.27-2.16-2.27-3.09-3.52c-0.06-0.09-0.14-0.15-0.21-0.21
	c-0.29-1.09-0.59-2.17-0.88-3.26c-0.13-0.5-0.27-1-0.39-1.51c-0.02-0.1-0.05-0.2-0.07-0.3c0.01-0.05,0.03-0.28,0.1-0.68
	c0.55-3.26-0.21-6.74-1.1-9.87C281.33,104.3,279.41,101.26,278.17,97.85z M337.36,143.67c1.49-4.49,3.97-10.79,5.51-9.41
	c0.29,0.26-2.54,4.91-2.84,5.42C339.2,141.05,338.32,142.39,337.36,143.67z M203.35,259.64c-4.22-4.37-4.09-11.82-3.52-17.46
	c0.6-6.06,2.38-11.97,4.17-17.77c3.47-11.29,7.8-22.29,11.96-33.33c3.82-10.15,7.35-20.42,11.89-30.28
	c4.72-10.23,10.67-21.04,19.21-28.62c2.81-2.49,6.87-3.72,10.33-5.07c3.19-1.25,6.41-2.44,9.57-3.78c2.91-1.23,5.75-3.01,8.88-3.58
	c2.16-0.39,4.27-0.29,5.62,1.62c1.04,1.47,1.45,3.28,1.53,5.05c0.02,0.45,0.28,0.75,0.6,0.89c0.73,2.66,1.45,5.32,2.18,7.97
	c0.56,2.03,1.11,4.07,1.66,6.11c0.19,0.71,0.38,1.42,0.56,2.13c0.12,0.49,0.1,1.38,0.26,0.61c-0.08,0.35,0.02,0.65,0.2,0.87
	c-0.34,0.24-0.73,0.44-1.18,0.56c-1.26,0.36-2.59,0.07-3.83,0.35c-1.18,0.27-1.59,1.02-1.96,2.12c-0.73,2.18-1.9,3.55-3.79,4.9
	c-3.48,2.48-7.43,4.75-11.38,6.27c-3.94,1.52-5.69,6.2-7.61,9.7c-2.28,4.17-4.31,8.48-6.04,12.9c-3.89,9.96-5.49,20.23-5.2,30.91
	c0.02,0.87,0.06,1.74,0.11,2.61c-1.08,2.55-2.08,5.15-2.96,7.81c-1.75,5.29-3.17,10.64-3.88,16.17c-0.64,4.99-1.27,10.79-0.18,15.75
	c0.58,2.62,2.51,7.6,5.83,7.73c3.01,0.12,5.61-3.73,6.46-6.12c1.2-3.38,1.13-7.25,0.65-10.76c-0.83-6.09-1.92-12.15-2.7-18.24
	c-0.51-3.99-0.92-8.02-1.13-12.05c3.08-7.19,6.89-13.97,10.82-20.82c2.83-4.92,5.91-9.53,9.88-13.6c0.74-0.76,0.93-1.28,1.43-2.15
	c0.75-1.3,1.87-2.3,2.98-3.29c2.1-1.88,4.39-3.52,6.78-5.01c0.27-0.17,0.56-0.33,0.83-0.5c-0.71,1.5-1.33,3-1.75,4.68
	c-0.79,3.15-1.48,6.33-2.21,9.5c-1.36,5.89-2.76,11.78-4.46,17.59c-3.41,11.58-7.35,23-10.62,34.63
	c-1.65,5.86-3.16,11.75-4.49,17.69c-1.09,4.91-2.57,10.12-2.25,15.22c-1.1-0.05-2.19-0.44-3.19-1.22c-1.8-1.41-2.66-3.89-4.72-4.9
	c-1.71-0.84-2.56-0.05-4.04,0.95c-2.13,1.44-4.21,3.13-6.68,3.95c-2.67,0.88-6.06,0.37-8.81,0.07c-0.68-0.07-1.36-0.17-2.03-0.27
	c-4.42-1.68-8.65-3.88-13.29-5c-2.44-0.59-4.96-1.01-7.49-1.35C205.26,261.22,204.23,260.55,203.35,259.64z M247.9,220
	c0.69,8.04,2.03,16.02,3.24,23.99c0.61,4,1.18,8.52-0.38,12.4c-0.57,1.41-2.31,4.24-4.14,4.19c-2.3-0.07-3.59-3.92-4.01-5.74
	c-1.22-5.3-0.43-11.69,0.39-17.01c0.78-5.14,2.22-10.13,3.89-15.04C247.21,221.86,247.55,220.93,247.9,220z M161.54,279.52
	c3.02-4.68,6.62-8.94,10.19-13.2c0.89-1.06,1.86-2.65,3.11-3.34c1.24-0.68,2.91-0.66,4.27-0.79c3.1-0.29,6.22-0.31,9.32-0.17
	c5.95,0.27,11.85,1.17,17.75,1.98c1.71,0.74,3.56,1.23,5.29,1.77c3.09,0.96,6.13,2.06,9.21,3.04c1.98,0.63,4.06,1.05,6.14,1.34
	c0.96,0.38,1.93,0.73,2.93,1.02c1.37,0.4,2.75,0.74,4.15,1.01c1.24,0.24,2.78,0.2,3.89,0.87c1.72,1.03,3.18,2.93,4.8,4.16
	c1.86,1.42,3.84,2.69,5.98,3.64c8.21,3.67,17.34,0.56,25.97-0.94c1.3,0.08,2.6,0.13,3.9,0.13c2.4,0,4.79-0.17,7.16-0.54
	c-2.45,3.33-4.72,6.75-7,10.25c-1.58,2.43-3.1,4.83-5.2,6.86c-2.61,2.53-5.26,4.43-8.6,5.78c-4.15,1.68-7.93,5-12.21,6.42
	c-5.97-0.99-11.94-1.86-17.93-2.74c-3.36-0.49-6.97-0.74-10.27-1.5c-3.9-0.9-5.53-4.18-7.75-7.12c-2.95-3.91-6.35-7.18-11.34-8.02
	c-4.23-0.71-8.95,0.35-11.24,4.31c-0.94,1.63-1.56,3.42-3.27,4.48c-0.57,0.35-1.1,0.52-1.58,0.56c-0.41-0.09-0.82-0.19-1.23-0.28
	c-0.8-0.47-1.26-1.49-1.18-2.75c0.18-2.91,1.51-6.01,3.18-8.35c1.66-2.33,4.02-4.23,6.86-4.82c1.1-0.23,2.69-0.15,2.82-1.65
	c0.15-1.72-2.15-2.76-3.45-3.18c-2.38-0.76-5.1-0.71-7.34,0.47c-4.21,2.22-6.23,7.37-6.8,11.82c-0.3,2.31-0.31,4.64-0.29,6.97
	c-0.98-0.25-1.97-0.51-2.95-0.79c-2.39-0.67-4.76-1.41-7.17-2c0.06-1.51,0.32-3.02,0.81-4.45c0.94-2.73,3.28-4.99,3.85-7.88
	c0.11-0.55,0.06-1.23-0.15-1.84c0.18-0.48-0.15-1.07-0.62-1.29c-0.02-0.01-0.03-0.02-0.05-0.02c0,0,0,0,0,0
	c-0.14-0.06-0.29-0.09-0.44-0.06c-0.24-0.11-0.5-0.18-0.81-0.18c-0.81,0-1.42,0.67-1.64,1.44c-0.15,0.18-0.26,0.38-0.31,0.62
	c-0.02,0.1-0.03,0.21-0.02,0.33c-0.87,0.85-1.68,1.76-2.45,2.74c-1.44,1.83-2.77,4.93-4.76,6.19c-2.42,1.53-5.87,0.66-6.38-2.3
	C158.17,284.43,159.95,281.99,161.54,279.52z M173.81,282.25c0.09,0.02,0.17,0.03,0.26,0.03c-0.58,1.85-2.48,4.42-2.85,5.21
	c-0.93,1.97-1.46,4.12-1.58,6.29c-0.09-0.02-0.17-0.04-0.26-0.05c-0.24-0.05-3.98-0.85-6.4-1.17c0.35-0.03,0.71-0.07,1.08-0.16
	c2.48-0.54,3.55-2.09,4.92-4.06C170.44,286.2,171.95,284.05,173.81,282.25z M181.81,299.55c0,2.58,0.81,9.16-3.05,8.94
	c-3.3-0.19-5.22-5.76-6.17-8.34c-0.44-1.21-0.72-2.47-0.85-3.75c1.89,0.48,3.76,1.02,5.65,1.56c1.47,0.42,2.94,0.81,4.42,1.18
	C181.8,299.27,181.81,299.41,181.81,299.55z M163.44,294.51c1.66,0.23,3.29,0.8,4.94,1.12c0.42,0.08,0.84,0.18,1.26,0.27
	c0.29,4.42,2.28,9.56,5.19,12.78c2.46,2.71,7.58,2.58,8.52-1.38c0.59-2.47,0.65-5.04,0.61-7.63c0.89,0.21,1.78,0.42,2.66,0.63
	c0.74,0.5,1.59,0.65,2.47,0.56c2.75,0.62,5.5,1.22,8.25,1.87c3.16,0.74,6.25,1.82,9.41,2.53c1.47,0.33,2.97,0.5,4.43,0.88
	c1.11,0.29,2.22,0.84,3.35,1.01c1.54,0.23,3.36,0.6,4.76,1.51c-10.37,3.15-21.11,4.76-31.81,6.39c-2.66,0.4-5.32,0.81-7.98,1.24
	c-2.57,0.42-5.23,1.12-7.85,1.09c-5.06-0.06-5.74-4.92-6.96-8.85c-1.47-4.74-3.24-9.39-4.64-14.16
	C161.18,294.56,162.29,294.35,163.44,294.51z M160.86,292.41c0.05,0.01,0.11,0.03,0.16,0.04c-0.08,0.03-0.13,0.06-0.12,0.11
	C160.9,292.51,160.88,292.46,160.86,292.41z M183.93,292.18c0.37-5.81,3.57-14.46,10.99-12.64c0.58,0.14,1.26,0.73,1.9,0.97
	c-1.03,0.16-2.03,0.5-2.98,0.94c-2.09,0.98-3.83,2.54-5.23,4.37c-2.15,2.83-4.87,8.25-3.7,11.98c-0.34-0.08-0.68-0.16-1.02-0.24
	C183.86,295.74,183.82,293.94,183.93,292.18z M159.57,291.92c-0.07,0.03-0.13,0.06-0.19,0.1c-0.03-0.08-0.05-0.17-0.08-0.25
	C159.39,291.83,159.48,291.88,159.57,291.92z M236.63,310.05c-6.13,0.82-12.17,2.19-18.16,3.73c-12.37,3.18-24.57,7.19-37.2,9.24
	c-12.88,2.09-26.17,1.22-39.16,0.67c-14.77-0.62-29.52-1.73-44.25-3.05c-7.63-0.68-15.25-1.42-22.87-2.18
	c-3.69-0.37-7.38-0.74-11.07-1.11c-3.14-0.32-7.88,0.03-10.16-2.54c-4.52-6.35-6.73-13.89-9.6-21.06
	c-2.99-7.49-5.93-14.99-8.63-22.59c-4.4-12.34-9.12-24.5-13.84-36.72c-2.83-7.3-5.69-14.6-8.65-21.85
	c-0.06-0.15-0.14-0.26-0.24-0.36c0.02-0.11,0.02-0.23,0-0.36c-0.42-2.39,3.71-2.08,5.2-2.06c3.72,0.04,7.44,0.01,11.15-0.03
	c8.44-0.11,16.88-0.39,25.31-0.74c16.69-0.69,33.36-1.66,50.06-2.04c4.67-0.11,9.34-0.17,14.01-0.17c2.42,0,4.84,0,7.26,0.05
	c1.55,0.03,3.31,0.05,3.65,1.94c0.05,0.29,0.19,0.48,0.37,0.6c1.85,5.38,3.22,10.89,4.75,16.37c1.71,6.11,3.84,12.1,5.93,18.09
	c2.05,5.87,4.1,11.75,6.13,17.62c0.92,2.67,1.89,5.32,2.8,8c1.03,3.01,1.64,6.13,2.57,9.17c0.79,2.59,1.79,5.12,2.84,7.62
	c0.45,1.07,0.97,2.09,1.5,3.13c0.87,1.7,1.18,3.55,1.72,5.36c1.68,5.58,3.73,11.07,5.29,16.67c0.85,3.04,2.28,6.48,5.53,7.56
	c3.88,1.28,8.73-0.38,12.58-1c13.47-2.15,27.09-3.75,40.13-7.94c0.83-0.27,0.87-1.23,0.44-1.73c-0.04-0.08-0.09-0.16-0.16-0.24
	c-1.53-1.75-4.4-2.64-6.56-3c-2.06-0.35-4.09-1.16-6.17-1.55c-3.33-0.62-6.53-1.72-9.82-2.51c-2.3-0.55-4.61-1.06-6.92-1.57
	c0.7-0.51,1.34-1.12,1.83-1.77c1.86-2.45,2.32-4.99,5.63-6.03c2.74-0.86,6.13-0.43,8.68,0.87c2.25,1.14,4.04,3.03,5.61,4.97
	c1.86,2.3,3.26,5.32,5.65,7.1c1.76,1.31,3.73,1.96,5.88,2.2c3.98,0.45,7.94,1.16,11.9,1.72c2.62,0.37,5.23,0.78,7.84,1.2
	C242.47,309.8,239.52,309.67,236.63,310.05z M413.53,305.11c-2.03,2.75-3.86,4.22-7.2,5.3c-6.1,1.97-12.66,1.52-18.97,2.04
	c-7.31,0.6-14.38,1.42-21.75,1.11c-7.08-0.3-14.16-0.28-21.25-0.23c-29.36,0.19-58.86,1.25-87.92-3.85
	c-0.06-0.01-0.12-0.02-0.18-0.03c2.53-1.23,4.96-2.77,7.33-4.07c2.72-1.5,5.18-2.27,7.67-4.21c2.26-1.76,4.39-3.64,6.13-5.93
	c1.78-2.34,3.41-4.9,4.9-7.43c1.78-3.03,4.11-5.44,6.11-8.29c0.14-0.2,0.28-0.39,0.42-0.58c1.43-0.36,2.8-0.91,3.82-1.96
	c0.08-0.09,0.15-0.19,0.23-0.28c0.11-0.02,0.23-0.03,0.34-0.06c5.49-1.03,10.88-2.53,16.18-4.26c5.16-1.68,10.25-3.59,15.33-5.5
	c5.14-1.94,10.61-4.74,16.1-5.38c2.56-0.3,4.95-0.51,7.37-1.5c2.01-0.82,3.82-1.99,5.59-3.22c4.5-3.11,9.25-5.42,14.6-6.69
	c3.14-0.75,6.18-1,9.12-0.85c0.48,0.29,0.95,0.58,1.41,0.89c2.27,1.55,4.42,3.27,6.39,5.19c4.31,4.23,7.74,9.57,11.23,14.48
	c3.32,4.67,6.53,9.41,9.71,14.17c1.65,2.46,3.47,4.89,4.89,7.5c1.05,1.93,1.91,3.96,2.93,5.9c0.06,1.7,1.19,2.81,2.64,3.47
	c-0.02,0.04-0.05,0.07-0.07,0.11C415.49,302.23,414.56,303.72,413.53,305.11z"/>
</svg>
