<?xml version="1.0" encoding="utf-8"?>
<!-- Generator: Adobe Illustrator 26.2.1, SVG Export Plug-In . SVG Version: 6.00 Build 0)  -->
<svg version="1.1" id="Layer_1" xmlns="http://www.w3.org/2000/svg" xmlns:xlink="http://www.w3.org/1999/xlink" x="0px" y="0px"
	 viewBox="0 0 566.84 343.74" style="enable-background:new 0 0 566.84 343.74;" xml:space="preserve">
<style type="text/css">
	.st0{fill:#FFFFFF;}
</style>
<g>
	<g>
		<path class="st0" d="M355.54,117.08c-10.15,4.67-8.76,18.47-0.71,24.49c4.33,3.24,9.96,4.2,15.23,4.58
			c0.28,0.02,1.73-0.1,1.94,0.11c0.25,0.25-0.03,0.95-0.06,1.33c-0.09,1.56,0.38,3.09,1.23,4.39c1.55,2.37,3.93,4.1,4.53,7.01
			c1.16,5.64-3.47,11.34-7.33,14.85c-2.1,1.91-4.56,3.83-7.46,4.23c-2.85,0.4-6.13-1.09-6.14-4.34c-0.01-2.67,1.84-5.25,3.55-7.14
			c1.9-2.09,4.19-3.77,6.75-4.96c1.24-0.58,2.55-1,3.88-1.31c1.23-0.29,3.21-0.88,4.3,0.03c2.06,1.71-2.07,5.43-3.16,6.51
			c-2.28,2.27-4.83,4.24-7.59,5.88c-0.28,0.17-1.57,1.11-1.92,0.95c-0.38-0.18-0.56-1.46-0.6-1.77c-0.21-1.43,0.01-3.17,1.28-4.06
			c0.8-0.56,2.19-0.8,2.74,0.25c0.78,1.49-1.17,1.59-2.09,1.57c-3.35-0.08-6.54-1.34-9.45-2.91c-5.71-3.08-10.67-7.5-16.88-9.62
			c-5.17-1.76-11.41-1.47-15.67,2.25c-2.25,1.97-3.44,4.81-4.14,7.66c-0.73,3.02-1.2,6.13-1.65,9.2
			c-0.87,5.94-1.36,11.96-0.43,17.92c0.9,5.7,3.41,11.12,7.61,15.13c4.24,4.04,9.77,6.55,15.42,7.87c2.85,0.66,6,1.3,8.92,0.89
			c2.73-0.38,4.98-1.9,6.47-4.2c2.99-4.62,2.58-10.81,1.74-15.99c-1.05-6.39-3.65-12.35-7.28-17.68c-3.22-4.72-7.07-9.09-9.55-14.28
			c-1.16-2.42-1.89-5.03-2.05-7.72c-0.12-2.1-3.4-2.11-3.28,0c0.36,6.29,3.4,11.65,6.99,16.66c3.79,5.28,7.84,10.34,10.08,16.52
			c1.2,3.3,1.99,6.75,2.27,10.25c0.24,2.94,0.22,5.98-0.84,8.77c-1.01,2.68-3.02,4.44-5.96,4.51c-3.16,0.07-6.48-0.73-9.49-1.67
			c-5.82-1.81-11.3-5.18-14.55-10.46c-3.42-5.54-4.02-12.2-3.66-18.57c0.18-3.26,0.62-6.49,1.16-9.71c0.53-3.17,0.88-6.63,2.21-9.59
			c2.71-6.03,9.99-6.41,15.47-4.36c6.66,2.49,11.9,7.71,18.44,10.5c2.97,1.26,6.43,2.26,9.68,1.83c3.09-0.41,4.92-3.59,3.33-6.42
			c-1.49-2.66-5.02-2.93-7.37-1.32c-2.72,1.86-3.32,5.51-2.45,8.52c0.35,1.21,0.99,2.41,2.15,3c1.75,0.9,3.51-0.21,5-1.09
			c2.92-1.74,5.66-3.85,8.09-6.23c2.07-2.03,4.55-4.49,4.78-7.56c0.25-3.31-2.82-5.38-5.87-5.11c-6.08,0.54-11.95,3.67-15.83,8.38
			c-1.87,2.27-3.51,4.92-3.8,7.91c-0.29,3.05,1.3,5.99,4.02,7.42c6.2,3.28,12.83-1.64,16.94-6c3.99-4.23,7.65-10.22,6.37-16.28
			c-0.7-3.27-3.12-5.13-4.86-7.79c-0.43-0.66-0.73-1.33-0.79-2.12c-0.05-0.72,0.22-1.4,0.17-2.12c-0.1-1.4-1.16-2.64-2.51-2.99
			c-1.38-0.36-3.01-0.22-4.44-0.36c-1.59-0.16-3.17-0.41-4.72-0.78c-2.67-0.64-5.35-1.64-7.48-3.42c-3.75-3.13-5.89-8.92-4.07-13.63
			c0.91-2.36,2.79-3.96,5.04-4.99C359.11,119.03,357.44,116.2,355.54,117.08L355.54,117.08z"/>
	</g>
	<g>
		<path class="st0" d="M205.08,76.98c-3.36-2.1-9.16,1.06-8.33,5.26c0.79,3.96,7.42,6.28,10.34,3.26c1.56-1.61,0.99-4.37,0.05-6.18
			c-0.55-1.06-1.33-1.69-2.2-2.44c-0.07-0.06-0.45-0.42-0.42-0.43c0.31-0.11-0.01,0.9-0.01,0.92c0.02,0.1-0.07,0.09-0.07,0.09
			c0.36-0.02,1.1-0.5,1.46-0.62c0.76-0.26,1.52-0.5,2.27-0.79c1.55-0.61,2.95-1.39,3.61-3.01c0.85-2.11,0.32-4.97,0.19-7.22
			c-0.18-3.07-0.36-6.15-0.54-9.23c-0.05-0.9-0.15-1.81-0.16-2.71c0-0.55,0.24-1.15,0.79-0.61c0.5,0.49,0.59,1.91,0.68,2.55
			c0.15,1.13,0.19,2.29,0.22,3.43c0.07,2.49-0.01,4.99,0.17,7.48c0.65,9.05,13.37,4.17,18.59,7.63c1.26,0.84,2.7-0.54,2.41-1.85
			c-0.38-1.68-0.79-3.36-1.45-4.95c-0.62-1.5-1.49-2.78-2.31-4.17c-1.4-2.37-2.73-7.64,1.13-8.57c1.13-0.27,3.01,0.21,3.07,1.62
			c0.04,0.93-1.07,2.19-2.07,1.76c-0.63-0.27-0.38-0.91,0.26-1.01c1.9-0.31,3.83,1.46,4.84,2.85c1.13,1.55,1.9,3.35,2.7,5.08
			c0.88,1.91,1.8,3.8,2.75,5.67c1.9,3.75,3.92,7.44,6.06,11.05c4.24,7.14,8.96,13.99,14.09,20.52c1.3,1.65,2.63,3.28,3.98,4.89
			c1.27,1.51,2.56,2.83,4.63,3.04c3.11,0.32,5.05-2.14,5.5-4.98c0.56-3.53-0.36-7.21-0.56-10.75c-0.24-4.33-0.15-8.67,0.25-12.99
			c0.77-8.34,2.65-16.97,6.05-24.66c1.27-2.88,4.22-7.27,7.94-5.05c1.7,1.02,1.19,3.36-0.6,4.02c-0.83,0.31-2.46-0.19-2.22-1.33
			c0.2-0.94,1.64-0.52,2.2-0.18c1.49,0.92,1.19,3.24,0.9,4.69c-0.43,2.15-1.08,4.26-1.57,6.4c-2.01,8.74-3.19,17.68-3.52,26.64
			c-0.08,2.27-0.11,4.54-0.08,6.81c0.01,1.1,1.04,1.82,2.07,1.58c8.97-2.04,18.5-0.9,26.73,3.23c1.31,0.66,2.7-0.42,2.41-1.85
			c-0.79-3.81-2.17-7.49-4.11-10.86c-1.96-3.41-4.62-6.26-7.03-9.34c-2.13-2.72-3.99-5.77-4.02-9.33c-0.02-2.92,1.41-6.21,4.65-6.64
			c2.62-0.35,5.97,1.92,5.68,4.8c-0.22,2.23-2.56,4.05-4.73,4.1c-1.16,0.03-3.05-0.67-2.01-2.03c0.87-1.14,2.45-1.78,3.83-1.99
			c2.94-0.45,5.95,0.79,8.3,2.47c3.28,2.35,5.17,6.03,6.56,9.72c1.54,4.09,2.64,8.32,4.34,12.36c0.61,1.44,2.57,0.76,3-0.39
			c1.78-4.83,3.57-9.66,5.35-14.48c0.58-1.57,1.07-3.77,2.07-5.13c0.44-0.59,0.69-0.62,1.35-0.35c0.64,0.25,1.51,0.51,2.07,0.94
			c0.16,0.12-0.03,0.07-0.03-0.09c0,0.38-0.21,0.79-0.35,1.13c-0.54,1.27-1.27,2.46-1.84,3.71c-1.29,2.83-2.6,5.59-4.03,8.35
			c-1.43,2.76-2.52,5.61-2.52,8.76c0,1.35,1.37,1.9,2.47,1.42c6.01-2.64,12.45-3.25,18.89-4.06c0.62-0.08,1.39-0.25,1.77,0.32
			c0.1,0.15,0.19,0.47,0.16,0.64c-0.07,0.48,0.37-0.17-0.23,0.25c-0.24,0.17-1.08,0.14-1.39,0.18c-0.47,0.06-0.95,0.13-1.42,0.2
			c-3.46,0.53-6.86,1.37-10.09,2.72c-5.67,2.38-10.67,6.54-13.1,12.3c-2.13,5.07-2.28,13.94,4.57,15.44
			c3.34,0.73,7.03-1.05,10.09-2.18c3.94-1.45,7.81-3.09,11.6-4.9c1.9-0.91,0.24-3.74-1.65-2.83c-3.38,1.62-6.83,3.09-10.34,4.4
			c-1.7,0.63-3.4,1.24-5.13,1.79c-1.17,0.37-2.45,0.78-3.69,0.57c-3.35-0.59-3.81-4.91-3.41-7.6c0.43-2.89,1.82-5.62,3.71-7.83
			c4.38-5.15,10.88-7.45,17.38-8.56c1.48-0.25,3.52-0.14,4.84-0.92c1.33-0.79,1.71-2.25,1.47-3.7c-0.4-2.4-2.23-3.74-4.62-3.62
			c-1.25,0.06-2.5,0.35-3.74,0.47c-1.93,0.18-3.86,0.41-5.77,0.72c-3.99,0.64-7.84,1.74-11.54,3.36c0.82,0.47,1.64,0.94,2.47,1.42
			c0-3.01,1.27-5.62,2.67-8.22c1.48-2.75,2.62-5.62,4-8.42c0.94-1.91,2.96-4.66,1.7-6.86c-0.42-0.73-1.12-1.17-1.87-1.52
			c-0.91-0.42-1.92-0.97-2.89-1.17c-3.63-0.74-4.95,3.11-5.94,5.79c-1.11,2.99-2.21,5.98-3.32,8.98c-0.95,2.57-1.9,5.14-2.85,7.71
			c1-0.13,2-0.26,3-0.39c-3.53-8.37-4.59-18.71-13.03-23.88c-3.26-2-7.48-3.11-11.21-1.84c-1.91,0.65-3.84,1.86-4.79,3.69
			c-1.12,2.16-0.19,4.41,1.84,5.58c3.02,1.74,6.93,0.62,9.22-1.82c2.63-2.8,2.74-6.72,0.3-9.68c-2.65-3.21-7.44-4.15-10.96-1.79
			c-3.53,2.36-4.52,6.76-3.92,10.75c0.8,5.27,4.61,9.25,7.84,13.21c3.6,4.42,6.08,9.46,7.24,15.05c0.8-0.62,1.61-1.23,2.41-1.85
			c-9.04-4.53-19.39-5.8-29.25-3.56c0.69,0.53,1.38,1.05,2.07,1.58c-0.11-11.22,1.09-22.42,3.66-33.34
			c0.94-3.99,3.62-10.3-0.32-13.53c-2.61-2.13-7.76-1.67-7.84,2.48c-0.08,3.98,4.66,5.87,7.72,3.86c2.49-1.63,3.68-5.15,1.88-7.72
			c-2.71-3.86-8.33-3.05-11.3-0.02c-3.24,3.32-4.63,8.51-5.94,12.83c-3.07,10.1-4.35,20.78-3.74,31.32
			c0.14,2.45,0.53,4.87,0.69,7.31c0.08,1.31,0.21,3.4-0.77,4.46c-1.54,1.68-3.51-1.18-4.37-2.21c-1.67-2-3.31-4.04-4.89-6.11
			c-6.23-8.16-11.78-16.83-16.59-25.9c-1.21-2.29-2.38-4.6-3.49-6.93c-1.04-2.18-1.94-4.47-3.26-6.51c-1.28-1.98-2.96-3.66-5.2-4.49
			c-1.81-0.67-4.17-0.9-5.64,0.59c-1.15,1.17-1.43,3.07-0.68,4.52c0.87,1.67,3,2.32,4.75,1.85c3.75-1,5.12-5.92,2.1-8.49
			c-3.43-2.92-8.45-1.06-9.97,2.92c-0.75,1.96-0.61,4.2,0.01,6.17c0.65,2.07,1.93,3.71,2.92,5.6c0.95,1.81,1.41,3.81,1.86,5.79
			c0.8-0.62,1.61-1.23,2.41-1.85c-2.79-1.85-6.42-1.9-9.65-2.04c-1.84-0.08-6.2,0.25-7.14-1.79c-0.26-0.58-0.21-1.34-0.24-1.97
			c-0.05-1.18-0.06-2.36-0.07-3.54c-0.02-2.3-0.02-4.61-0.33-6.9c-0.23-1.68-0.61-3.7-2.03-4.8c-1.4-1.08-3.46-0.93-4.75,0.26
			c-1.63,1.5-1.14,3.76-1.03,5.72c0.17,2.83,0.33,5.67,0.5,8.5c0.11,1.91,0.42,3.96,0.29,5.87c-0.1,1.55-1.14,1.88-2.46,2.34
			c-1.22,0.43-2.58,0.74-3.68,1.44c-1.31,0.83-1.84,2.31-0.97,3.68c0.54,0.85,1.49,1.22,2.09,1.99c0.4,0.51,1.23,2.25,0.86,2.88
			c-0.35,0.58-1.81,0.35-2.31,0.22c-0.79-0.2-2.29-0.76-2.47-1.71c-0.28-1.5,2.33-2.58,3.44-1.89
			C205.22,80.93,206.87,78.09,205.08,76.98L205.08,76.98z"/>
	</g>
	<g>
		<path class="st0" d="M11.24,216.53c15.46-7.24,28.35,7.15,42.76,10.53c19.08,4.46,34.96-8.51,51.67-15.18
			c4.36-1.74,8.94-3.12,13.64-3.53c6.05-0.53,12.07,0.48,17.9,2.05c10.43,2.81,20.37,7.09,31.02,9.11
			c18.57,3.51,38.46,2.21,55.62-6.12c8.29-4.02,16.41-9.82,21.66-17.51c5.52-8.08,5.46-16.87,1.92-25.73
			c-3.4-8.5-8.92-17.21-5.86-26.65c2.51-7.75,8.82-13.64,13.19-20.33c3.8-5.83,7.78-15.15,2.84-21.49
			c-4.05-5.19-11.79-3.7-16.08,0.37c-4.54,4.31-6.89,14.31,0.23,17.32c5.89,2.49,13.34-3.79,10.34-10.07
			c-4.32-9.05-15.56,1.09-19.48,5.21c-7.15,7.53-12.45,16.85-17.77,25.69c-10.99,18.25-20.58,39.26-16.37,61.07
			c1.01,5.25,3.05,9.93,5.36,14.7c1.26,2.6,2.35,5.29,2.22,8.24c-0.14,3.1-1.37,6.08-1.78,9.15c-1.42,10.54,3.09,20.84,8.33,29.71
			c10.51,17.82,24.32,33.87,40.08,47.25c7.9,6.7,16.36,12.99,25.35,18.16c8.25,4.74,17.56,7.48,26.69,3.53
			c7.89-3.42,13.67-10.41,18.33-17.41c5.72-8.6,10.64-17.88,15.49-26.99c9.58-17.98,17.93-37.94,17.79-58.69
			c-0.03-4.25-1.6-7.83-5.94-9.06c-4.6-1.3-9.75-0.87-14.47-1.7c-5.06-0.89-10.09-2.31-14.7-4.6c-4.56-2.26-8.8-4.88-10.41-9.95
			c-1.74-5.48-0.65-11.33,5.41-13.31c4.81-1.58,10.1-0.05,14.56,1.91c8.69,3.81,16.41,10.3,26.01,11.79
			c10.69,1.66,20.07-4.65,30.05-7.25c9.18-2.39,18.74-2.63,28.15-1.78c37.26,3.36,76.08,23.85,112.27,4.93
			c8.08-4.22,15.93-8.83,25.03-4.55c1.9,0.89,3.56-1.93,1.65-2.83c-7.63-3.59-14.77-2.32-22.11,1.3c-3.83,1.89-7.52,4.06-11.42,5.8
			c-4.22,1.88-8.71,3.12-13.26,3.93c-18.2,3.26-36.8-0.88-54.53-4.89c-17.34-3.93-35.13-8.44-53.06-7.22
			c-9.39,0.64-17.75,3.39-26.48,6.7c-4.82,1.83-9.84,3.38-15.05,2.75c-4.75-0.57-9.16-2.71-13.31-4.97
			c-7.49-4.07-15.33-9.52-24.2-9.53c-4.05,0-8.25,1.33-11.01,4.43c-2.73,3.07-3.18,7.05-2.51,10.98c0.61,3.53,2.11,7.29,4.88,9.68
			c3.28,2.83,7.28,4.91,11.28,6.52c4.52,1.82,9.27,2.98,14.09,3.69c2.04,0.3,4.09,0.53,6.15,0.69c2.36,0.18,5.26-0.06,7.39,1.14
			c2.42,1.37,2.31,4.31,2.23,6.73c-0.08,2.68-0.29,5.37-0.6,8.03c-0.61,5.14-1.65,10.23-3.04,15.22
			c-2.66,9.58-6.63,18.72-11.12,27.57c-4.51,8.89-9.44,17.61-14.5,26.2c-4.3,7.31-9.32,14.96-16.54,19.69
			c-8.84,5.78-18.34,3.91-27.11-1.06c-8.66-4.9-16.81-10.9-24.41-17.3c-15.05-12.66-28.14-27.64-38.54-44.34
			c-5.67-9.1-11.29-19.87-9.58-30.95c0.74-4.82,2.57-9.09,1.14-14c-1.37-4.7-4.21-8.81-5.7-13.48c-6.7-21.12,2.31-42.9,12.91-61
			c5.08-8.67,10.24-17.72,16.73-25.42c2.97-3.52,6.34-6.81,10.36-9.12c1.94-1.11,5.25-2.41,6.25,0.69c0.62,1.9-0.81,4.52-2.53,5.36
			c-2.89,1.42-6.23-0.76-6.27-3.89c-0.04-3.97,2.28-7.96,5.79-9.76c2.74-1.4,6.45-1.71,8.63,0.84c2.7,3.16,1.68,8.18,0.36,11.73
			c-2.69,7.2-8.48,12.79-12.67,19.11c-4.38,6.61-6.36,13.75-4.32,21.58c2.19,8.38,7.93,15.85,8.54,24.64
			c0.71,10.22-6.99,18.46-14.69,24.06c-14.95,10.87-33.96,14.5-52.14,13.14c-9.69-0.73-18.97-3.09-28.16-6.17
			c-9.85-3.31-19.99-7.05-30.55-6.66c-18.24,0.67-32.31,13.87-49.4,18.42c-8.47,2.25-16.72,1.41-24.7-2.1
			c-6.19-2.72-11.9-6.54-18.32-8.73c-6.53-2.22-13.03-1.77-19.26,1.15C7.67,214.59,9.34,217.42,11.24,216.53L11.24,216.53z"/>
	</g>
	<g>
		<path class="st0" d="M206.85,84.78c1.63-0.33,3.31-0.38,4.97-0.54c1.9-0.18,3.78-0.55,5.68-0.75c4.1-0.43,8.42-0.38,12.25,1.31
			c1.64,0.73,3.16,1.72,4.41,3.02c1.37,1.43,2.26,3.23,3.43,4.81c2.49,3.38,5.61,6.16,8.76,8.9c1.59,1.38,3.91-0.93,2.32-2.32
			c-3.43-2.98-6.84-5.99-9.33-9.82c-1.08-1.66-2.14-3.31-3.63-4.63c-1.51-1.34-3.23-2.36-5.09-3.13c-4.06-1.67-8.53-1.87-12.86-1.45
			c-2.12,0.21-4.22,0.62-6.34,0.81c-1.82,0.16-3.65,0.25-5.44,0.62C203.91,82.04,204.79,85.2,206.85,84.78L206.85,84.78z"/>
	</g>
	<g>
		<path class="st0" d="M332.73,121.72c-10.76-2.14-20.55,3.83-30.47,6.94c-1.21,0.38-2.43,0.72-3.66,1.01
			c-1.18,0.27-2.65,0.72-3.86,0.34c-0.9-0.28-1.29-1.13-1.54-1.98c-0.26-0.87-0.19-1.24,0.24-2.02c0.75-1.34,1.88-2.57,3.63-2.73
			c1.93-0.19,3.52,0.25,4.93,1.62c0.49,0.48,1.24,1.16,1.46,1.83c0.32,0.94-0.49,1.8-1.26,2.22c-2,1.1-4.66,1.05-6.83,1.77
			c-4.35,1.44-8.51,4.05-11.39,7.65c-1.45,1.8-2.58,3.89-2.93,6.2c-0.38,2.56,0.39,4.96,0.91,7.43c1.05,4.92-0.47,9.92-2.88,14.21
			c-1.29,2.29-2.8,4.62-4.74,6.42c-2.03,1.88-4.82,2.39-7.43,3.01c-6.17,1.45-12.42,2.56-18.72,3.31c-2.07,0.25-2.09,3.53,0,3.28
			c6.24-0.74,12.44-1.78,18.56-3.18c2.7-0.62,5.65-1.14,8.03-2.64c2.24-1.41,3.88-3.57,5.37-5.72c3.13-4.55,5.51-9.99,5.44-15.6
			c-0.04-2.98-1.3-5.76-1.38-8.7c-0.08-2.71,1.43-5.12,3.26-7.01c1.86-1.91,4.08-3.44,6.5-4.58c2.52-1.18,5.15-1.47,7.8-2.19
			c2.35-0.63,4.55-2.16,4.99-4.71c0.39-2.22-1.14-4.14-2.7-5.55c-3.38-3.06-8.62-3.29-11.93-0.01c-1.21,1.2-2.48,3.16-2.4,4.92
			c0.1,2.18,1.32,4.7,3.35,5.64c2.78,1.27,6.35,0.06,9.1-0.75c3.25-0.96,6.39-2.22,9.55-3.44c6.36-2.46,13.22-5.18,20.14-3.8
			C333.91,125.29,334.8,122.13,332.73,121.72L332.73,121.72z"/>
	</g>
</g>
</svg>
